<svg xmlns="http://www.w3.org/2000/svg" viewBox="0 0 71.37 470.79"><defs><style>.cls-1,.cls-2{fill:none;stroke-width:3px;}.cls-1{stroke:blue;}.cls-2{stroke:#fff;}</style></defs><title>Asset 13</title><g id="Layer_2" data-name="Layer 2"><g id="Layer_1-2" data-name="Layer 1"><g id="ULSAN"><path class="cls-1" d="M5.52,1.5H23.2V38.1c0,11.93,3.08,16.24,10.08,16.24S43.56,50,43.56,38.1V1.5H60.63V36c0,22.82-8.64,33.52-27.35,33.52S5.52,58.87,5.52,36Z"/><path class="cls-1" d="M13.23,101.74H30.92v52H56.21v14.8h-43Z"/><path class="cls-1" d="M17.45,248.35c4.73,3.8,10.69,6.48,15.63,6.48,5.35,0,7.61-1.75,7.61-4.73,0-3.19-3.39-4.22-9-6.48l-8.33-3.5c-7.2-2.88-13.47-8.94-13.47-18.61,0-11.41,10.28-20.77,24.88-20.77a32.13,32.13,0,0,1,22.21,8.94l-8.84,11.1c-4.52-3.19-8.43-4.83-13.37-4.83-4.32,0-7,1.54-7,4.52,0,3.19,3.8,4.32,9.87,6.68l8.12,3.19c8.33,3.29,13.06,9,13.06,18.3C58.78,260,49.32,270,32.66,270a38.7,38.7,0,0,1-25.29-9.56Z"/><path class="cls-1" d="M42.12,354.86H23.41l-3.29,14.19H2l20.36-66.83H43.77l20.36,66.83H45.41Zm-3.19-13.67-1.13-4.63c-1.64-6.37-3.29-14.5-4.93-21.18h-.41c-1.44,6.79-3.08,14.8-4.73,21.18l-1.13,4.63Z"/><path class="cls-1" d="M5.93,402.46H24l14.8,29.81,6.37,15h.41c-.82-7.2-2.26-17.27-2.26-25.5V402.46H60.22v66.83H42.12l-14.8-29.92-6.37-14.91h-.41c.82,7.61,2.26,17.27,2.26,25.5v19.33H5.93Z"/><path class="cls-2" d="M8.14,1.5H25.82V38.1c0,11.93,3.08,16.24,10.08,16.24S46.18,50,46.18,38.1V1.5H63.24V36c0,22.82-8.64,33.52-27.35,33.52S8.14,58.87,8.14,36Z"/><path class="cls-2" d="M15.85,101.74H33.53v52H58.82v14.8h-43Z"/><path class="cls-2" d="M20.06,248.35c4.73,3.8,10.69,6.48,15.63,6.48,5.35,0,7.61-1.75,7.61-4.73,0-3.19-3.39-4.22-9-6.48l-8.33-3.5c-7.2-2.88-13.47-8.94-13.47-18.61,0-11.41,10.28-20.77,24.88-20.77a32.13,32.13,0,0,1,22.21,8.94L50.7,220.8c-4.52-3.19-8.43-4.83-13.37-4.83-4.32,0-7,1.54-7,4.52,0,3.19,3.8,4.32,9.87,6.68l8.12,3.19c8.33,3.29,13.06,9,13.06,18.3C61.39,260,51.93,270,35.28,270A38.7,38.7,0,0,1,10,260.48Z"/><path class="cls-2" d="M44.73,354.86H26l-3.29,14.19H4.64L25,302.22H46.38l20.36,66.83H48Zm-3.19-13.67-1.13-4.63c-1.64-6.37-3.29-14.5-4.93-21.18h-.41c-1.44,6.79-3.08,14.8-4.73,21.18l-1.13,4.63Z"/><path class="cls-2" d="M8.55,402.46H26.64l14.8,29.81,6.37,15h.41C47.41,440.09,46,430,46,421.79V402.46H62.83v66.83H44.74l-14.8-29.92-6.37-14.91h-.41c.82,7.61,2.26,17.27,2.26,25.5v19.33H8.55Z"/><path class="cls-2" d="M10.75,1.5H28.43V38.1c0,11.93,3.08,16.24,10.08,16.24S48.79,50,48.79,38.1V1.5H65.86V36c0,22.82-8.64,33.52-27.35,33.52S10.75,58.87,10.75,36Z"/><path class="cls-2" d="M18.46,101.74H36.14v52H61.43v14.8h-43Z"/><path class="cls-2" d="M22.68,248.35c4.73,3.8,10.69,6.48,15.63,6.48,5.35,0,7.61-1.75,7.61-4.73,0-3.19-3.39-4.22-9-6.48l-8.33-3.5c-7.2-2.88-13.47-8.94-13.47-18.61,0-11.41,10.28-20.77,24.88-20.77a32.13,32.13,0,0,1,22.21,8.94l-8.84,11.1c-4.52-3.19-8.43-4.83-13.37-4.83-4.32,0-7,1.54-7,4.52,0,3.19,3.8,4.32,9.87,6.68l8.12,3.19c8.33,3.29,13.06,9,13.06,18.3C64,260,54.55,270,37.89,270a38.7,38.7,0,0,1-25.29-9.56Z"/><path class="cls-2" d="M47.35,354.86H28.64l-3.29,14.19H7.25l20.36-66.83H49l20.36,66.83H50.64Zm-3.19-13.67L43,336.56c-1.64-6.37-3.29-14.5-4.93-21.18h-.41c-1.44,6.79-3.08,14.8-4.73,21.18l-1.13,4.63Z"/><path class="cls-2" d="M11.16,402.46H29.26l14.8,29.81,6.37,15h.41c-.82-7.2-2.26-17.27-2.26-25.5V402.46H65.44v66.83H47.35l-14.8-29.92-6.37-14.91h-.41C26.58,432.07,28,441.74,28,450v19.33H11.16Z"/></g></g></g></svg>