<svg xmlns="http://www.w3.org/2000/svg" xmlns:xlink="http://www.w3.org/1999/xlink" viewBox="0 0 265.45 306.51"><defs><style>.cls-1{fill:none;}.cls-2{clip-path:url(#clip-path);}.cls-3{fill:#6eabc4;}.cls-4{fill:#6facc4;}.cls-5{fill:#70acc3;}.cls-6{fill:#71adc3;}.cls-7{fill:#72aec3;}.cls-8{fill:#73afc3;}.cls-9{fill:#74afc2;}.cls-10{fill:#75b0c2;}.cls-11{fill:#76b1c2;}.cls-12{fill:#77b2c2;}.cls-13{fill:#78b2c1;}.cls-14{fill:#79b3c1;}.cls-15{fill:#7ab4c1;}.cls-16{fill:#7bb4c0;}.cls-17{fill:#7cb5c0;}.cls-18{fill:#7db6c0;}.cls-19{fill:#7eb7c0;}.cls-20{fill:#7fb7bf;}.cls-21{fill:#80b8bf;}.cls-22{fill:#81b9bf;}.cls-23{fill:#82babf;}.cls-24{fill:#83babe;}.cls-25{fill:#84bbbe;}.cls-26{fill:#85bcbe;}.cls-27{fill:#86bcbd;}.cls-28{fill:#87bdbd;}.cls-29{fill:#88bebd;}.cls-30{fill:#89bfbd;}.cls-31{fill:#8abfbc;}.cls-32{fill:#8bc0bc;}.cls-33{fill:#8cc1bc;}.cls-34{fill:#8dc2bc;}.cls-35{fill:#8ec2bb;}.cls-36{fill:#8fc3bb;}.cls-37{fill:#90c4bb;}.cls-38{fill:#92c5bb;}.cls-39{fill:#93c5ba;}.cls-40{fill:#94c6ba;}.cls-41{fill:#95c7ba;}.cls-42{fill:#96c7b9;}.cls-43{fill:#97c8b9;}.cls-44{fill:#98c9b9;}.cls-45{fill:#99cab9;}.cls-46{fill:#9acab8;}.cls-47{fill:#9bcbb8;}.cls-48{fill:#9cccb8;}.cls-49{fill:#9dcdb8;}.cls-50{fill:#9ecdb7;}.cls-51{fill:#9fceb7;}.cls-52{fill:#a0cfb7;}.cls-53{fill:#a1cfb6;}.cls-54{fill:#a2d0b6;}.cls-55{fill:#a3d1b6;}.cls-56{fill:#a4d2b6;}.cls-57{fill:#a5d2b5;}.cls-58{fill:#a6d3b5;}.cls-59{fill:#a7d4b5;}.cls-60{fill:#a8d5b5;}.cls-61{fill:#a9d5b4;}.cls-62{fill:#aad6b4;}.cls-63{fill:#abd7b4;}.cls-64{fill:#acd7b3;}.cls-65{fill:#add8b3;}.cls-66{fill:#aed9b3;}.cls-67{fill:#afdab3;}.cls-68{fill:#b0dab2;}.cls-69{fill:#b1dbb2;}.cls-70{fill:#b2dcb2;}.cls-71{fill:#b3ddb2;}.cls-72{fill:#b4ddb1;}.cls-73{fill:#b5deb1;}</style><clipPath id="clip-path" transform="translate(0)"><polygon class="cls-1" points="265.45 0 0 153.26 265.45 306.51 265.45 0"/></clipPath></defs><title>Asset_10</title><g id="Layer_2" data-name="Layer 2"><g id="Layer_1-2" data-name="Layer 1"><g id="Triangle"><g class="cls-2"><polygon class="cls-3" points="88.48 0 0 153.26 0 0 88.48 0"/><polygon class="cls-3" points="93.47 0 2.74 157.15 0 155.57 0 153.26 88.48 0 93.47 0"/><polygon class="cls-4" points="98.45 0 6.48 159.31 2.74 157.15 93.47 0 98.45 0"/><polygon class="cls-5" points="103.44 0 10.22 161.46 6.48 159.31 98.45 0 103.44 0"/><polygon class="cls-6" points="108.42 0 13.96 163.62 10.22 161.46 103.44 0 108.42 0"/><polygon class="cls-7" points="113.41 0 17.69 165.78 13.96 163.62 108.42 0 113.41 0"/><polygon class="cls-8" points="118.39 0 21.43 167.94 17.69 165.78 113.41 0 118.39 0"/><polygon class="cls-9" points="123.38 0 25.17 170.1 21.43 167.94 118.39 0 123.38 0"/><polygon class="cls-10" points="128.36 0 28.91 172.26 25.17 170.1 123.38 0 128.36 0"/><polygon class="cls-11" points="133.35 0 32.65 174.41 28.91 172.26 128.36 0 133.35 0"/><polygon class="cls-12" points="138.33 0 36.39 176.57 32.65 174.41 133.35 0 138.33 0"/><polygon class="cls-13" points="143.32 0 40.13 178.73 36.39 176.57 138.33 0 143.32 0"/><polygon class="cls-14" points="148.3 0 43.86 180.89 40.13 178.73 143.32 0 148.3 0"/><polygon class="cls-15" points="153.29 0 47.6 183.05 43.86 180.89 148.3 0 153.29 0"/><polygon class="cls-16" points="158.27 0 51.34 185.21 47.6 183.05 153.29 0 158.27 0"/><polygon class="cls-17" points="163.26 0 55.08 187.37 51.34 185.21 158.27 0 163.26 0"/><polygon class="cls-18" points="168.24 0 58.82 189.53 55.08 187.37 163.26 0 168.24 0"/><polygon class="cls-19" points="173.23 0 62.56 191.68 58.82 189.53 168.24 0 173.23 0"/><polygon class="cls-20" points="178.21 0 66.3 193.84 62.56 191.68 173.23 0 178.21 0"/><polygon class="cls-21" points="183.2 0 70.03 196 66.3 193.84 178.21 0 183.2 0"/><polygon class="cls-22" points="188.18 0 73.77 198.16 70.03 196 183.2 0 188.18 0"/><polygon class="cls-23" points="193.17 0 77.51 200.32 73.77 198.16 188.18 0 193.17 0"/><polygon class="cls-24" points="198.15 0 81.25 202.48 77.51 200.32 193.17 0 198.15 0"/><polygon class="cls-25" points="203.14 0 84.99 204.63 81.25 202.48 198.15 0 203.14 0"/><polygon class="cls-26" points="208.12 0 88.73 206.79 84.99 204.63 203.14 0 208.12 0"/><polygon class="cls-27" points="213.11 0 92.47 208.95 88.73 206.79 208.12 0 213.11 0"/><polygon class="cls-28" points="218.09 0 96.21 211.11 92.47 208.95 213.11 0 218.09 0"/><polygon class="cls-29" points="223.08 0 99.94 213.27 96.21 211.11 218.09 0 223.08 0"/><polygon class="cls-30" points="228.06 0 103.68 215.43 99.94 213.27 223.08 0 228.06 0"/><polygon class="cls-31" points="233.05 0 107.42 217.59 103.68 215.43 228.06 0 233.05 0"/><polygon class="cls-32" points="238.03 0 111.16 219.74 107.42 217.59 233.05 0 238.03 0"/><polygon class="cls-33" points="243.01 0 114.9 221.9 111.16 219.74 238.03 0 243.01 0"/><polygon class="cls-34" points="248 0 118.64 224.06 114.9 221.9 243.01 0 248 0"/><polygon class="cls-35" points="252.99 0 122.38 226.22 118.64 224.06 248 0 252.99 0"/><polygon class="cls-36" points="257.97 0 126.12 228.38 122.38 226.22 252.99 0 257.97 0"/><polygon class="cls-37" points="262.95 0 129.85 230.54 126.12 228.38 257.97 0 262.95 0"/><polygon class="cls-38" points="265.45 4.32 133.59 232.7 129.85 230.54 262.95 0 265.45 0 265.45 4.32"/><polygon class="cls-39" points="265.45 12.95 137.33 234.85 133.59 232.7 265.45 4.32 265.45 12.95"/><polygon class="cls-40" points="265.45 21.59 141.07 237.01 137.33 234.85 265.45 12.95 265.45 21.59"/><polygon class="cls-41" points="265.45 30.22 144.81 239.17 141.07 237.01 265.45 21.59 265.45 30.22"/><polygon class="cls-42" points="265.45 38.85 148.55 241.33 144.81 239.17 265.45 30.22 265.45 38.85"/><polygon class="cls-43" points="265.45 47.49 152.29 243.49 148.55 241.33 265.45 38.85 265.45 47.49"/><polygon class="cls-44" points="265.45 56.12 156.03 245.65 152.29 243.49 265.45 47.49 265.45 56.12"/><polygon class="cls-45" points="265.45 64.76 159.76 247.81 156.03 245.65 265.45 56.12 265.45 64.76"/><polygon class="cls-46" points="265.45 73.39 163.5 249.96 159.76 247.81 265.45 64.76 265.45 73.39"/><polygon class="cls-47" points="265.45 82.02 167.24 252.12 163.5 249.96 265.45 73.39 265.45 82.02"/><polygon class="cls-48" points="265.45 90.66 170.98 254.28 167.24 252.12 265.45 82.02 265.45 90.66"/><polygon class="cls-49" points="265.45 99.29 174.72 256.44 170.98 254.28 265.45 90.66 265.45 99.29"/><polygon class="cls-50" points="265.45 107.93 178.46 258.6 174.72 256.44 265.45 99.29 265.45 107.93"/><polygon class="cls-51" points="265.45 116.56 182.2 260.76 178.46 258.6 265.45 107.93 265.45 116.56"/><polygon class="cls-52" points="265.45 125.19 185.94 262.92 182.2 260.76 265.45 116.56 265.45 125.19"/><polygon class="cls-53" points="265.45 133.83 189.67 265.07 185.94 262.92 265.45 125.19 265.45 133.83"/><polygon class="cls-54" points="265.45 142.46 193.41 267.23 189.67 265.07 265.45 133.83 265.45 142.46"/><polygon class="cls-55" points="265.45 151.1 197.15 269.39 193.41 267.23 265.45 142.46 265.45 151.1"/><polygon class="cls-56" points="265.45 159.73 200.89 271.55 197.15 269.39 265.45 151.1 265.45 159.73"/><polygon class="cls-57" points="265.45 168.37 204.63 273.71 200.89 271.55 265.45 159.73 265.45 168.37"/><polygon class="cls-58" points="265.45 177 208.37 275.87 204.63 273.71 265.45 168.37 265.45 177"/><polygon class="cls-59" points="265.45 185.63 212.11 278.02 208.37 275.87 265.45 177 265.45 185.63"/><polygon class="cls-60" points="265.45 194.27 215.84 280.18 212.11 278.02 265.45 185.63 265.45 194.27"/><polygon class="cls-61" points="265.45 202.9 219.58 282.34 215.84 280.18 265.45 194.27 265.45 202.9"/><polygon class="cls-62" points="265.45 211.54 223.32 284.5 219.58 282.34 265.45 202.9 265.45 211.54"/><polygon class="cls-63" points="265.45 220.17 227.06 286.66 223.32 284.5 265.45 211.54 265.45 220.17"/><polygon class="cls-64" points="265.45 228.81 230.8 288.82 227.06 286.66 265.45 220.17 265.45 228.81"/><polygon class="cls-65" points="265.45 237.44 234.54 290.98 230.8 288.82 265.45 228.81 265.45 237.44"/><polygon class="cls-66" points="265.45 246.07 238.28 293.13 234.54 290.98 265.45 237.44 265.45 246.07"/><polygon class="cls-67" points="265.45 254.71 242.01 295.29 238.28 293.13 265.45 246.07 265.45 254.71"/><polygon class="cls-68" points="265.45 263.34 245.75 297.45 242.01 295.29 265.45 254.71 265.45 263.34"/><polygon class="cls-69" points="265.45 271.98 249.49 299.61 245.75 297.45 265.45 263.34 265.45 271.98"/><polygon class="cls-70" points="265.45 280.61 253.23 301.77 249.49 299.61 265.45 271.98 265.45 280.61"/><polygon class="cls-71" points="265.45 289.24 256.97 303.93 253.23 301.77 265.45 280.61 265.45 289.24"/><polygon class="cls-72" points="265.45 297.88 260.71 306.09 256.97 303.93 265.45 289.24 265.45 297.88"/><polygon class="cls-73" points="265.45 306.51 265.45 306.51 261.45 306.51 260.71 306.09 265.45 297.88 265.45 306.51"/><polygon class="cls-73" points="265.45 306.51 265.45 306.51 265.45 306.51 265.45 306.51"/></g></g></g></g></svg>