<svg xmlns="http://www.w3.org/2000/svg" viewBox="0 0 71.37 470.79"><defs><style>.cls-1,.cls-2{fill:none;stroke-width:3px;}.cls-1{stroke:blue;}.cls-2{stroke:#fff;}</style></defs><title>Asset 11</title><g id="Layer_2" data-name="Layer 2"><g id="Layer_1-2" data-name="Layer 1"><g id="BUSAN"><path class="cls-1" d="M9,1.5H33.07c14,0,25.29,3.5,25.29,16.66a14.57,14.57,0,0,1-11.1,14.39V33c9.46,1.85,14.19,6.79,14.19,15.63,0,13.78-11.93,19.74-26.32,19.74H9ZM32.66,27.82c5.76,0,8.43-2.88,8.43-7s-2.67-5.76-8.43-5.76h-6V27.82ZM33.9,54.76c7,0,10.28-2.67,10.28-7.61s-3.29-7-10.28-7H26.7v14.6Z"/><path class="cls-1" d="M5.52,101.74H23.2v36.6c0,11.93,3.08,16.24,10.08,16.24s10.28-4.32,10.28-16.24v-36.6H60.63v34.54c0,22.82-8.64,33.52-27.35,33.52S5.52,159.11,5.52,136.29Z"/><path class="cls-1" d="M17.45,248.35c4.73,3.8,10.69,6.48,15.63,6.48,5.35,0,7.61-1.75,7.61-4.73,0-3.19-3.39-4.22-9-6.48l-8.33-3.5c-7.2-2.88-13.47-8.94-13.47-18.61,0-11.41,10.28-20.77,24.88-20.77a32.13,32.13,0,0,1,22.21,8.94l-8.84,11.1c-4.52-3.19-8.43-4.83-13.37-4.83-4.32,0-7,1.54-7,4.52,0,3.19,3.8,4.32,9.87,6.68l8.12,3.19c8.33,3.29,13.06,9,13.06,18.3C58.78,260,49.32,270,32.66,270a38.7,38.7,0,0,1-25.29-9.56Z"/><path class="cls-1" d="M42.12,354.86H23.41l-3.29,14.19H2l20.36-66.83H43.77l20.36,66.83H45.41Zm-3.19-13.67-1.13-4.63c-1.64-6.37-3.29-14.5-4.93-21.18h-.41c-1.44,6.79-3.08,14.8-4.73,21.18l-1.13,4.63Z"/><path class="cls-1" d="M5.93,402.46H24l14.8,29.81,6.37,15h.41c-.82-7.2-2.26-17.27-2.26-25.5V402.46H60.22v66.83H42.12l-14.8-29.92-6.37-14.91h-.41c.82,7.61,2.26,17.27,2.26,25.5v19.33H5.93Z"/><path class="cls-2" d="M11.63,1.5H35.69C49.67,1.5,61,5,61,18.16a14.57,14.57,0,0,1-11.1,14.39V33c9.46,1.85,14.19,6.79,14.19,15.63,0,13.78-11.93,19.74-26.32,19.74H11.63ZM35.28,27.82c5.76,0,8.43-2.88,8.43-7S41,15.07,35.28,15.07h-6V27.82Zm1.23,26.94c7,0,10.28-2.67,10.28-7.61s-3.29-7-10.28-7h-7.2v14.6Z"/><path class="cls-2" d="M8.14,101.74H25.82v36.6c0,11.93,3.08,16.24,10.08,16.24s10.28-4.32,10.28-16.24v-36.6H63.24v34.54c0,22.82-8.64,33.52-27.35,33.52S8.14,159.11,8.14,136.29Z"/><path class="cls-2" d="M20.06,248.35c4.73,3.8,10.69,6.48,15.63,6.48,5.35,0,7.61-1.75,7.61-4.73,0-3.19-3.39-4.22-9-6.48l-8.33-3.5c-7.2-2.88-13.47-8.94-13.47-18.61,0-11.41,10.28-20.77,24.88-20.77a32.13,32.13,0,0,1,22.21,8.94L50.7,220.8c-4.52-3.19-8.43-4.83-13.37-4.83-4.32,0-7,1.54-7,4.52,0,3.19,3.8,4.32,9.87,6.68l8.12,3.19c8.33,3.29,13.06,9,13.06,18.3C61.39,260,51.93,270,35.28,270A38.7,38.7,0,0,1,10,260.48Z"/><path class="cls-2" d="M44.73,354.86H26l-3.29,14.19H4.64L25,302.22H46.38l20.36,66.83H48Zm-3.19-13.67-1.13-4.63c-1.64-6.37-3.29-14.5-4.93-21.18h-.41c-1.44,6.79-3.08,14.8-4.73,21.18l-1.13,4.63Z"/><path class="cls-2" d="M8.55,402.46H26.64l14.8,29.81,6.37,15h.41C47.41,440.09,46,430,46,421.79V402.46H62.83v66.83H44.74l-14.8-29.92-6.37-14.91h-.41c.82,7.61,2.26,17.27,2.26,25.5v19.33H8.55Z"/><path class="cls-2" d="M14.25,1.5H38.3c14,0,25.29,3.5,25.29,16.66a14.57,14.57,0,0,1-11.1,14.39V33c9.46,1.85,14.19,6.79,14.19,15.63,0,13.78-11.93,19.74-26.32,19.74H14.25ZM37.89,27.82c5.76,0,8.43-2.88,8.43-7s-2.67-5.76-8.43-5.76h-6V27.82Zm1.23,26.94c7,0,10.28-2.67,10.28-7.61s-3.29-7-10.28-7h-7.2v14.6Z"/><path class="cls-2" d="M10.75,101.74H28.43v36.6c0,11.93,3.08,16.24,10.08,16.24s10.28-4.32,10.28-16.24v-36.6H65.86v34.54c0,22.82-8.64,33.52-27.35,33.52s-27.76-10.69-27.76-33.52Z"/><path class="cls-2" d="M22.68,248.35c4.73,3.8,10.69,6.48,15.63,6.48,5.35,0,7.61-1.75,7.61-4.73,0-3.19-3.39-4.22-9-6.48l-8.33-3.5c-7.2-2.88-13.47-8.94-13.47-18.61,0-11.41,10.28-20.77,24.88-20.77a32.13,32.13,0,0,1,22.21,8.94l-8.84,11.1c-4.52-3.19-8.43-4.83-13.37-4.83-4.32,0-7,1.54-7,4.52,0,3.19,3.8,4.32,9.87,6.68l8.12,3.19c8.33,3.29,13.06,9,13.06,18.3C64,260,54.55,270,37.89,270a38.7,38.7,0,0,1-25.29-9.56Z"/><path class="cls-2" d="M47.35,354.86H28.64l-3.29,14.19H7.25l20.36-66.83H49l20.36,66.83H50.64Zm-3.19-13.67L43,336.56c-1.64-6.37-3.29-14.5-4.93-21.18h-.41c-1.44,6.79-3.08,14.8-4.73,21.18l-1.13,4.63Z"/><path class="cls-2" d="M11.16,402.46H29.26l14.8,29.81,6.37,15h.41c-.82-7.2-2.26-17.27-2.26-25.5V402.46H65.44v66.83H47.35l-14.8-29.92-6.37-14.91h-.41C26.58,432.07,28,441.74,28,450v19.33H11.16Z"/></g></g></g></svg>