<svg xmlns="http://www.w3.org/2000/svg" viewBox="0 0 91.44 673.74"><defs><style>.cls-1,.cls-2{fill:none;stroke-width:3px;}.cls-1{stroke:blue;}.cls-2{stroke:#fff;}</style></defs><title>Asset 16</title><g id="Layer_2" data-name="Layer 2"><g id="Layer_1-2" data-name="Layer 1"><g id="GWANGJU"><path class="cls-1" d="M48.15,1.5a29.87,29.87,0,0,1,21.38,8.84l-9.66,10.9c-3.29-2.88-6.17-4.52-11.51-4.52-9,0-15.83,7.2-15.83,19.33,0,12.54,5.55,19.53,17.48,19.53a10,10,0,0,0,5.14-1.23V45.09H45.27V30.7h25.5V62.57a37.69,37.69,0,0,1-23,8.23c-18.3,0-33.31-11.31-33.31-34.13C14.43,14.25,29.85,1.5,48.15,1.5Z"/><path class="cls-1" d="M1.79,103H19.88l3.7,29.2c.72,7,1.54,14,2.26,21h.41c1.23-7,2.47-14.08,3.7-21L36.33,103h14.8l6.37,29.2c1.23,6.68,2.47,13.88,3.7,21h.41c.72-7.09,1.54-14.19,2.26-21l3.7-29.2H84.45L73.34,169.8H50.93l-5.14-26.52c-1-5.14-1.85-10.69-2.47-15.63h-.41c-.72,4.93-1.44,10.49-2.47,15.63L35.51,169.8h-22Z"/><path class="cls-1" d="M52.16,255.85H33.45L30.16,270H12.07l20.36-66.83H53.81L74.16,270H55.45ZM49,242.18l-1.13-4.63c-1.64-6.37-3.29-14.5-4.93-21.18H42.5c-1.44,6.79-3.08,14.8-4.73,21.18l-1.13,4.63Z"/><path class="cls-1" d="M16,303.46H34.07l14.8,29.81,6.37,15h.41c-.82-7.2-2.26-17.27-2.26-25.5V303.46H70.26v66.83H52.16l-14.8-29.92L31,325.46h-.41c.82,7.61,2.26,17.27,2.26,25.5v19.33H16Z"/><path class="cls-1" d="M48.15,402.46a29.87,29.87,0,0,1,21.38,8.84l-9.66,10.9c-3.29-2.88-6.17-4.52-11.51-4.52-9,0-15.83,7.2-15.83,19.33,0,12.54,5.55,19.53,17.48,19.53a10,10,0,0,0,5.14-1.23v-9.25H45.27V431.66h25.5v31.87a37.69,37.69,0,0,1-23,8.23c-18.3,0-33.31-11.31-33.31-34.13C14.43,415.21,29.85,402.46,48.15,402.46Z"/><path class="cls-1" d="M29.34,550.41c2.26,4.32,5.55,6.37,8.43,6.37,4.73,0,7.4-2.26,7.4-10.69V503.94H62.86v43.59c0,13.36-7.2,24.47-22.62,24.47-10.9,0-17.89-4.11-22.82-12.65Z"/><path class="cls-1" d="M15.56,604.18H33.25v36.6c0,11.93,3.08,16.24,10.08,16.24s10.28-4.32,10.28-16.24v-36.6H70.67v34.54c0,22.82-8.64,33.52-27.35,33.52s-27.76-10.69-27.76-33.52Z"/><path class="cls-2" d="M50.77,1.5a29.87,29.87,0,0,1,21.38,8.84l-9.66,10.9C59.2,18.36,56.32,16.72,51,16.72c-9,0-15.83,7.2-15.83,19.33,0,12.54,5.55,19.53,17.48,19.53a10,10,0,0,0,5.14-1.23V45.09H47.89V30.7h25.5V62.57a37.69,37.69,0,0,1-23,8.23C32.06,70.79,17,59.48,17,36.66,17,14.25,32.47,1.5,50.77,1.5Z"/><path class="cls-2" d="M4.4,103H22.49l3.7,29.2c.72,7,1.54,14,2.26,21h.41c1.23-7,2.47-14.08,3.7-21L38.94,103h14.8l6.37,29.2c1.23,6.68,2.47,13.88,3.7,21h.41c.72-7.09,1.54-14.19,2.26-21L70.2,103H87.06L76,169.8H53.54L48.4,143.28c-1-5.14-1.85-10.69-2.47-15.63h-.41c-.72,4.93-1.44,10.49-2.47,15.63L38.12,169.8h-22Z"/><path class="cls-2" d="M54.78,255.85H36.06L32.77,270H14.68L35,203.22H56.42L76.78,270H58.07Zm-3.19-13.67-1.13-4.63c-1.64-6.37-3.29-14.5-4.93-21.18h-.41c-1.44,6.79-3.08,14.8-4.73,21.18l-1.13,4.63Z"/><path class="cls-2" d="M18.59,303.46H36.68l14.8,29.81,6.37,15h.41C57.45,341.09,56,331,56,322.78V303.46H72.87v66.83H54.78L40,340.37,33.6,325.46h-.41c.82,7.61,2.26,17.27,2.26,25.5v19.33H18.59Z"/><path class="cls-2" d="M50.77,402.46a29.87,29.87,0,0,1,21.38,8.84l-9.66,10.9c-3.29-2.88-6.17-4.52-11.51-4.52-9,0-15.83,7.2-15.83,19.33,0,12.54,5.55,19.53,17.48,19.53a10,10,0,0,0,5.14-1.23v-9.25H47.89V431.66h25.5v31.87a37.69,37.69,0,0,1-23,8.23c-18.3,0-33.31-11.31-33.31-34.13C17,415.21,32.47,402.46,50.77,402.46Z"/><path class="cls-2" d="M32,550.41c2.26,4.32,5.55,6.37,8.43,6.37,4.73,0,7.4-2.26,7.4-10.69V503.94H65.47v43.59c0,13.36-7.2,24.47-22.62,24.47C32,572,25,567.89,20,559.35Z"/><path class="cls-2" d="M18.18,604.18H35.86v36.6c0,11.93,3.08,16.24,10.08,16.24s10.28-4.32,10.28-16.24v-36.6H73.28v34.54c0,22.82-8.64,33.52-27.35,33.52s-27.76-10.69-27.76-33.52Z"/><path class="cls-2" d="M53.38,1.5a29.87,29.87,0,0,1,21.38,8.84L65.1,21.24c-3.29-2.88-6.17-4.52-11.51-4.52-9,0-15.83,7.2-15.83,19.33,0,12.54,5.55,19.53,17.48,19.53a10,10,0,0,0,5.14-1.23V45.09H50.5V30.7H76V62.57a37.69,37.69,0,0,1-23,8.23c-18.3,0-33.31-11.31-33.31-34.13C19.66,14.25,35.08,1.5,53.38,1.5Z"/><path class="cls-2" d="M7,103H25.11l3.7,29.2c.72,7,1.54,14,2.26,21h.41c1.23-7,2.47-14.08,3.7-21L41.56,103h14.8l6.37,29.2c1.23,6.68,2.47,13.88,3.7,21h.41c.72-7.09,1.54-14.19,2.26-21l3.7-29.2H89.67L78.57,169.8H56.16L51,143.28c-1-5.14-1.85-10.69-2.47-15.63h-.41c-.72,4.93-1.44,10.49-2.47,15.63L40.74,169.8h-22Z"/><path class="cls-2" d="M57.39,255.85H38.68L35.39,270H17.29l20.36-66.83H59L79.39,270H60.68ZM54.2,242.18l-1.13-4.63c-1.64-6.37-3.29-14.5-4.93-21.18h-.41c-1.44,6.79-3.08,14.8-4.73,21.18l-1.13,4.63Z"/><path class="cls-2" d="M21.2,303.46H39.3l14.8,29.81,6.37,15h.41c-.82-7.2-2.26-17.27-2.26-25.5V303.46H75.49v66.83H57.39l-14.8-29.92-6.37-14.91H35.8c.82,7.61,2.26,17.27,2.26,25.5v19.33H21.2Z"/><path class="cls-2" d="M53.38,402.46a29.87,29.87,0,0,1,21.38,8.84L65.1,422.2c-3.29-2.88-6.17-4.52-11.51-4.52-9,0-15.83,7.2-15.83,19.33,0,12.54,5.55,19.53,17.48,19.53a10,10,0,0,0,5.14-1.23v-9.25H50.5V431.66H76v31.87a37.69,37.69,0,0,1-23,8.23c-18.3,0-33.31-11.31-33.31-34.13C19.66,415.21,35.08,402.46,53.38,402.46Z"/><path class="cls-2" d="M34.57,550.41c2.26,4.32,5.55,6.37,8.43,6.37,4.73,0,7.4-2.26,7.4-10.69V503.94H68.08v43.59c0,13.36-7.2,24.47-22.62,24.47-10.9,0-17.89-4.11-22.82-12.65Z"/><path class="cls-2" d="M20.79,604.18H38.47v36.6c0,11.93,3.08,16.24,10.08,16.24s10.28-4.32,10.28-16.24v-36.6H75.9v34.54c0,22.82-8.64,33.52-27.35,33.52s-27.76-10.69-27.76-33.52Z"/></g></g></g></svg>