<svg xmlns="http://www.w3.org/2000/svg" viewBox="0 0 71.37 671.27"><defs><style>.cls-1,.cls-2{fill:none;stroke-width:3px;}.cls-1{stroke:blue;}.cls-2{stroke:#fff;}</style></defs><title>Asset 17</title><g id="Layer_2" data-name="Layer 2"><g id="Layer_1-2" data-name="Layer 1"><g id="DAJEON"><path class="cls-1" d="M7.48,1.5H27.21C47.57,1.5,61.55,11,61.55,34.6s-14,33.72-33.31,33.72H7.48ZM26.19,54.14c9.66,0,17.27-3.91,17.27-19.53S35.85,15.69,26.19,15.69h-1V54.14Z"/><path class="cls-1" d="M42.12,154.38H23.41l-3.29,14.19H2l20.36-66.83H43.77l20.36,66.83H45.41Zm-3.19-13.67-1.13-4.63c-1.64-6.37-3.29-14.5-4.93-21.18h-.41c-1.44,6.79-3.08,14.8-4.73,21.18l-1.13,4.63Z"/><path class="cls-1" d="M11.9,202H55.08v14.8H29.58v10.49h21.8v14.8H29.58V254H56.1v14.8H11.9Z"/><path class="cls-1" d="M19.3,348.69c2.26,4.32,5.55,6.37,8.43,6.37,4.73,0,7.4-2.26,7.4-10.69V302.22H52.82v43.59c0,13.37-7.2,24.47-22.62,24.47-10.9,0-17.89-4.11-22.82-12.65Z"/><path class="cls-1" d="M11.9,402.46H55.08v14.8H29.58v10.49h21.8v14.8H29.58v11.93H56.1v14.8H11.9Z"/><path class="cls-1" d="M2,535.81c0-22,12.54-34.34,31-34.34s31,12.44,31,34.34-12.54,35-31,35S2,557.81,2,535.81Zm44,0c0-12.13-4.93-19.12-13-19.12s-13,7-13,19.12,4.94,19.74,13,19.74S46,547.94,46,535.81Z"/><path class="cls-1" d="M5.93,602.95H24l14.8,29.82,6.37,15h.41c-.82-7.2-2.26-17.27-2.26-25.5V602.95H60.22v66.83H42.12l-14.8-29.92-6.37-14.91h-.41c.82,7.61,2.26,17.27,2.26,25.5v19.33H5.93Z"/><path class="cls-2" d="M10.09,1.5H29.83C50.19,1.5,64.17,11,64.17,34.6s-14,33.72-33.31,33.72H10.09ZM28.8,54.14c9.66,0,17.27-3.91,17.27-19.53S38.46,15.69,28.8,15.69h-1V54.14Z"/><path class="cls-2" d="M44.73,154.38H26l-3.29,14.19H4.64L25,101.74H46.38l20.36,66.83H48Zm-3.19-13.67-1.13-4.63c-1.64-6.37-3.29-14.5-4.93-21.18h-.41c-1.44,6.79-3.08,14.8-4.73,21.18l-1.13,4.63Z"/><path class="cls-2" d="M14.51,202H57.69v14.8H32.19v10.49H54v14.8H32.19V254H58.72v14.8H14.51Z"/><path class="cls-2" d="M21.91,348.69c2.26,4.32,5.55,6.37,8.43,6.37,4.73,0,7.4-2.26,7.4-10.69V302.22H55.43v43.59c0,13.37-7.2,24.47-22.62,24.47-10.9,0-17.89-4.11-22.82-12.65Z"/><path class="cls-2" d="M14.51,402.46H57.69v14.8H32.19v10.49H54v14.8H32.19v11.93H58.72v14.8H14.51Z"/><path class="cls-2" d="M4.64,535.81c0-22,12.54-34.34,31-34.34s31,12.44,31,34.34-12.54,35-31,35S4.64,557.81,4.64,535.81Zm44,0c0-12.13-4.93-19.12-13-19.12s-13,7-13,19.12,4.94,19.74,13,19.74S48.64,547.94,48.64,535.81Z"/><path class="cls-2" d="M8.55,602.95H26.64l14.8,29.82,6.37,15h.41c-.82-7.2-2.26-17.27-2.26-25.5V602.95H62.83v66.83H44.74l-14.8-29.92-6.37-14.91h-.41c.82,7.61,2.26,17.27,2.26,25.5v19.33H8.55Z"/><path class="cls-2" d="M12.7,1.5H32.44C52.8,1.5,66.78,11,66.78,34.6s-14,33.72-33.31,33.72H12.7ZM31.41,54.14c9.66,0,17.27-3.91,17.27-19.53S41.08,15.69,31.41,15.69h-1V54.14Z"/><path class="cls-2" d="M47.35,154.38H28.64l-3.29,14.19H7.25l20.36-66.83H49l20.36,66.83H50.64Zm-3.19-13.67L43,136.08c-1.64-6.37-3.29-14.5-4.93-21.18h-.41c-1.44,6.79-3.08,14.8-4.73,21.18l-1.13,4.63Z"/><path class="cls-2" d="M17.12,202H60.3v14.8H34.81v10.49H56.6v14.8H34.81V254H61.33v14.8H17.12Z"/><path class="cls-2" d="M24.53,348.69c2.26,4.32,5.55,6.37,8.43,6.37,4.73,0,7.4-2.26,7.4-10.69V302.22H58v43.59c0,13.37-7.2,24.47-22.62,24.47-10.9,0-17.89-4.11-22.82-12.65Z"/><path class="cls-2" d="M17.12,402.46H60.3v14.8H34.81v10.49H56.6v14.8H34.81v11.93H61.33v14.8H17.12Z"/><path class="cls-2" d="M7.25,535.81c0-22,12.54-34.34,31-34.34s31,12.44,31,34.34-12.54,35-31,35S7.25,557.81,7.25,535.81Zm44,0c0-12.13-4.93-19.12-13-19.12s-13,7-13,19.12,4.94,19.74,13,19.74S51.26,547.94,51.26,535.81Z"/><path class="cls-2" d="M11.16,602.95H29.26l14.8,29.82,6.37,15h.41c-.82-7.2-2.26-17.27-2.26-25.5V602.95H65.44v66.83H47.35l-14.8-29.92-6.37-14.91h-.41c.82,7.61,2.26,17.27,2.26,25.5v19.33H11.16Z"/></g></g></g></svg>