<svg xmlns="http://www.w3.org/2000/svg" viewBox="0 0 71.37 472.03"><defs><style>.cls-1,.cls-2{fill:none;stroke-width:3px;}.cls-1{stroke:blue;}.cls-2{stroke:#fff;}</style></defs><title>Asset 12</title><g id="Layer_2" data-name="Layer 2"><g id="Layer_1-2" data-name="Layer 1"><g id="DAEGU"><path class="cls-1" d="M7.48,1.5H27.21C47.57,1.5,61.55,11,61.55,34.6s-14,33.72-33.31,33.72H7.48ZM26.19,54.14c9.66,0,17.27-3.91,17.27-19.53S35.85,15.69,26.19,15.69h-1V54.14Z"/><path class="cls-1" d="M42.12,154.38H23.41l-3.29,14.19H2l20.36-66.83H43.77l20.36,66.83H45.41Zm-3.19-13.67-1.13-4.63c-1.64-6.37-3.29-14.5-4.93-21.18h-.41c-1.44,6.79-3.08,14.8-4.73,21.18l-1.13,4.63Z"/><path class="cls-1" d="M11.9,202H55.08v14.8H29.58v10.49h21.8v14.8H29.58V254H56.1v14.8H11.9Z"/><path class="cls-1" d="M38.11,301a29.87,29.87,0,0,1,21.38,8.84l-9.66,10.9c-3.29-2.88-6.17-4.52-11.51-4.52-9,0-15.83,7.2-15.83,19.33,0,12.54,5.55,19.53,17.48,19.53a10,10,0,0,0,5.14-1.23v-9.25H35.23V330.19h25.5v31.87a37.69,37.69,0,0,1-23,8.23c-18.3,0-33.31-11.31-33.31-34.13C4.39,313.74,19.81,301,38.11,301Z"/><path class="cls-1" d="M5.52,402.46H23.2v36.6c0,11.93,3.08,16.24,10.08,16.24S43.56,451,43.56,439.07v-36.6H60.63V437c0,22.82-8.64,33.52-27.35,33.52S5.52,459.83,5.52,437Z"/><path class="cls-2" d="M10.09,1.5H29.83C50.19,1.5,64.17,11,64.17,34.6s-14,33.72-33.31,33.72H10.09ZM28.8,54.14c9.66,0,17.27-3.91,17.27-19.53S38.46,15.69,28.8,15.69h-1V54.14Z"/><path class="cls-2" d="M44.73,154.38H26l-3.29,14.19H4.64L25,101.74H46.38l20.36,66.83H48Zm-3.19-13.67-1.13-4.63c-1.64-6.37-3.29-14.5-4.93-21.18h-.41c-1.44,6.79-3.08,14.8-4.73,21.18l-1.13,4.63Z"/><path class="cls-2" d="M14.51,202H57.69v14.8H32.19v10.49H54v14.8H32.19V254H58.72v14.8H14.51Z"/><path class="cls-2" d="M40.73,301a29.87,29.87,0,0,1,21.38,8.84l-9.66,10.9c-3.29-2.88-6.17-4.52-11.51-4.52-9,0-15.83,7.2-15.83,19.33,0,12.54,5.55,19.53,17.48,19.53a10,10,0,0,0,5.14-1.23v-9.25H37.85V330.19h25.5v31.87a37.69,37.69,0,0,1-23,8.23C22,370.28,7,359,7,336.15,7,313.74,22.43,301,40.73,301Z"/><path class="cls-2" d="M8.14,402.46H25.82v36.6c0,11.93,3.08,16.24,10.08,16.24S46.18,451,46.18,439.07v-36.6H63.24V437c0,22.82-8.64,33.52-27.35,33.52S8.14,459.83,8.14,437Z"/><path class="cls-2" d="M12.7,1.5H32.44C52.8,1.5,66.78,11,66.78,34.6s-14,33.72-33.31,33.72H12.7ZM31.41,54.14c9.66,0,17.27-3.91,17.27-19.53S41.08,15.69,31.41,15.69h-1V54.14Z"/><path class="cls-2" d="M47.35,154.38H28.64l-3.29,14.19H7.25l20.36-66.83H49l20.36,66.83H50.64Zm-3.19-13.67L43,136.08c-1.64-6.37-3.29-14.5-4.93-21.18h-.41c-1.44,6.79-3.08,14.8-4.73,21.18l-1.13,4.63Z"/><path class="cls-2" d="M17.12,202H60.3v14.8H34.81v10.49H56.6v14.8H34.81V254H61.33v14.8H17.12Z"/><path class="cls-2" d="M43.34,301a29.87,29.87,0,0,1,21.38,8.84l-9.66,10.9c-3.29-2.88-6.17-4.52-11.51-4.52-9,0-15.83,7.2-15.83,19.33,0,12.54,5.55,19.53,17.48,19.53a10,10,0,0,0,5.14-1.23v-9.25H40.46V330.19H66v31.87a37.69,37.69,0,0,1-23,8.23c-18.3,0-33.31-11.31-33.31-34.13C9.62,313.74,25,301,43.34,301Z"/><path class="cls-2" d="M10.75,402.46H28.43v36.6c0,11.93,3.08,16.24,10.08,16.24S48.79,451,48.79,439.07v-36.6H65.86V437c0,22.82-8.64,33.52-27.35,33.52S10.75,459.83,10.75,437Z"/></g></g></g></svg>