<svg xmlns="http://www.w3.org/2000/svg" viewBox="0 0 140.88 72.39"><title>Asset_20</title><g id="Layer_2" data-name="Layer 2"><g id="Layer_21" data-name="Layer 21"><g id="Layer_11" data-name="Layer 11"><path d="M133.88,7V65.39H7V7H133.88m7-7H0V72.39H140.88V0Z"/><path d="M34.49,50H23.68V22.44H27.8V46.27h6.69Z"/><path d="M50.81,47.43A2.22,2.22,0,0,1,48.31,50H39.38a2.19,2.19,0,0,1-2.44-2.52V25c0-1.69.81-2.53,2.44-2.53h8.93A2.22,2.22,0,0,1,50.81,25Zm-4.12-1V26H41.05V46.42Z"/><path d="M67.72,47.43A2.23,2.23,0,0,1,65.2,50H56.55a2.2,2.2,0,0,1-2.44-2.52V25a2.22,2.22,0,0,1,2.5-2.53H65.2A2.23,2.23,0,0,1,67.72,25v5.87H63.59V26H58.22V46.42h5.37v-7.7H60.53v-3.5h7.19Z"/><path d="M84.87,47.43A2.21,2.21,0,0,1,82.38,50H73.45A2.2,2.2,0,0,1,71,47.43V25a2.2,2.2,0,0,1,2.45-2.53h8.93A2.22,2.22,0,0,1,84.87,25Zm-4.11-1V26H75.12V46.42Z"/><path d="M101.94,47.43A2.23,2.23,0,0,1,99.41,50H90.67a2.21,2.21,0,0,1-2.49-2.52v-25h4.11v24h5.54v-24h4.11Z"/><path d="M117.2,26.08h-4.54V50h-4.09V26.08H104V22.44H117.2Z"/></g></g></g></svg>