<svg xmlns="http://www.w3.org/2000/svg" viewBox="0 0 245.85 181.73"><defs><style>.cls-1{fill:#fef8e5;}</style></defs><title>Asset_6</title><g id="Layer_2" data-name="Layer 2"><g id="Layer_1-2" data-name="Layer 1"><g id="Layer_8" data-name="Layer 8"><path class="cls-1" d="M13,21.42H1.21V2.79H13ZM4.28,18.75H9.93V5.46H4.28Zm21.19,10.5H22.4V13.14H19.07V27.83H16V.6h3.08v9.8H22.4V0h3.08Z"/><path class="cls-1" d="M40.29,21.42H28.49V2.79h11.8Zm-8.73-2.67h5.65V5.46H31.57Zm21.19,10.5H49.68V13.14H46.35V27.83H43.28V.6h3.08v9.8h3.33V0h3.08Z"/><path class="cls-1" d="M61.68,4.31V.19h3.14V4.31h6.79V7H54.7V4.31Zm1.55,18.4a7.94,7.94,0,0,1-3-.52A7.11,7.11,0,0,1,58,20.81a5.78,5.78,0,0,1-1.4-2,5.68,5.68,0,0,1-.48-2.25V14.75a5.68,5.68,0,0,1,.48-2.25,5.94,5.94,0,0,1,1.4-2,7,7,0,0,1,2.22-1.4,8.71,8.71,0,0,1,5.95,0,6.94,6.94,0,0,1,2.24,1.4,5.94,5.94,0,0,1,1.4,2,5.67,5.67,0,0,1,.48,2.25v1.84a5.67,5.67,0,0,1-.48,2.25,5.78,5.78,0,0,1-1.4,2,7.08,7.08,0,0,1-2.24,1.38A8,8,0,0,1,63.23,22.72Zm0-11.48a4.18,4.18,0,0,0-3,1.06,3.71,3.71,0,0,0-1.11,2.81v1.14A3.65,3.65,0,0,0,60.22,19a4.86,4.86,0,0,0,6,0,3.66,3.66,0,0,0,1.11-2.79V15.1a3.71,3.71,0,0,0-1.11-2.81A4.18,4.18,0,0,0,63.23,11.23ZM82,14.34H77.48V29.25H74.34V0h3.14V11.61H82Z"/><path class="cls-1" d="M86.87,13.26v6.16h2.67q1.59,0,2.89,0t2.46-.11q1.16-.08,2.28-.19t2.36-.3l.35,2.67q-1.11.16-2.24.29t-2.44.21q-1.32.08-2.89.13t-3.54,0h-5V10.63h8.85V5H83.66V2.35H95.72V13.26Zm16.44,16V16H97.94V13.26h5.36V9H97.94V6.22h5.36V0h3.14V29.25Z"/><path class="cls-1" d="M136,14.79v2.67H109.14V14.79ZM116.15,26.21h16.53v2.73H113V20.12h3.14Zm.16-25.06V8.76h15.83v2.67H113.2V1.14Z"/><path class="cls-1" d="M154,9.77a4.71,4.71,0,0,1-.76,1.08,10,10,0,0,1-1.36,1.3q-1,.76-2.32,1.73t-2.63,1.79l-1.75-2.28q1.52-1,2.92-2a25.77,25.77,0,0,0,2.28-1.78,7.25,7.25,0,0,0,1-1.09A4.4,4.4,0,0,0,152,7.46a5.06,5.06,0,0,0,.27-1.24q.06-.67.06-1.52V4.38h-6.22V1.71h15.26V4.38h-5.87v.19q0,.76,0,1.35A4.28,4.28,0,0,0,155.64,7a3.29,3.29,0,0,0,.44.94,4.88,4.88,0,0,0,.9,1,28,28,0,0,0,2.46,1.87q1.35.92,2.74,1.81l-1.71,2.28q-1.24-.79-2.44-1.65t-2.22-1.65q-.64-.51-1.14-1a2.71,2.71,0,0,1-.67-.81Zm14.63,6.66V29.25H150.35V16.44h3.11v3.68h12V16.44Zm-3.11,10.15V22.75h-12v3.84Zm0-11.58V0h3.11V15Z"/><path class="cls-1" d="M191.6,22.4q-2,.19-4.09.33t-4.43.24q-2.33.1-5,.14t-5.76,0V20.43q3.14,0,5.76,0t4.9-.11q2.28-.08,4.31-.21t4-.32Zm-10.06-6.35a9.1,9.1,0,0,1-3.24-.54,7.92,7.92,0,0,1-2.44-1.43,6.2,6.2,0,0,1-1.55-2,5.51,5.51,0,0,1-.54-2.38V8.22a5.51,5.51,0,0,1,.54-2.38,6.2,6.2,0,0,1,1.55-2,7.92,7.92,0,0,1,2.44-1.43,10,10,0,0,1,6.47,0,7.92,7.92,0,0,1,2.44,1.43,6.22,6.22,0,0,1,1.55,2,5.51,5.51,0,0,1,.54,2.38V9.68a5.51,5.51,0,0,1-.54,2.38,6.22,6.22,0,0,1-1.55,2,7.92,7.92,0,0,1-2.44,1.43A9.1,9.1,0,0,1,181.54,16.05Zm0-2.73A5.38,5.38,0,0,0,183.4,13a5.27,5.27,0,0,0,1.52-.84,3.85,3.85,0,0,0,1-1.22,3.11,3.11,0,0,0,.37-1.46V8.41a3.27,3.27,0,0,0-.37-1.51,3.64,3.64,0,0,0-1-1.22,5.26,5.26,0,0,0-1.52-.81,5.92,5.92,0,0,0-3.73,0,5.3,5.3,0,0,0-1.51.81,3.63,3.63,0,0,0-1,1.22,3.27,3.27,0,0,0-.36,1.51V9.49a3.11,3.11,0,0,0,.36,1.46,3.84,3.84,0,0,0,1,1.22,5.34,5.34,0,0,0,3.38,1.16Zm11.58,15.93V0h3.11V29.25Z"/><path class="cls-1" d="M9.42,48.89A4.53,4.53,0,0,1,8.66,50,11,11,0,0,1,7.3,51.37q-1,.89-2.27,1.87t-2.59,1.9L.6,52.89q1.52-1.08,2.86-2.11a27,27,0,0,0,2.19-1.86,11.2,11.2,0,0,0,1-1.11,4.86,4.86,0,0,0,.65-1.13,5.88,5.88,0,0,0,.35-1.27,9.68,9.68,0,0,0,.11-1.54v-1.3H1.59v-2.7h15.1v2.7H10.91v1.17A13.09,13.09,0,0,0,11,45.12a5,5,0,0,0,.24,1.11,4,4,0,0,0,.49,1,5.19,5.19,0,0,0,.86.94q1.11,1,2.35,2t2.67,1.86L15.8,54.22q-1.24-.86-2.32-1.68t-2.22-1.78q-.73-.6-1.19-1.06a3,3,0,0,1-.62-.81ZM6.6,61.33a4.08,4.08,0,0,1,.62-2.16A5.69,5.69,0,0,1,9,57.4a9.35,9.35,0,0,1,2.82-1.19,15.12,15.12,0,0,1,3.76-.43,15.12,15.12,0,0,1,3.76.43,9.35,9.35,0,0,1,2.82,1.19,5.69,5.69,0,0,1,1.78,1.78,4.08,4.08,0,0,1,.62,2.16V62.6a4.08,4.08,0,0,1-.62,2.16,5.69,5.69,0,0,1-1.78,1.78,9.35,9.35,0,0,1-2.82,1.19,15.12,15.12,0,0,1-3.76.43,15.12,15.12,0,0,1-3.76-.43A9.35,9.35,0,0,1,9,66.53a5.68,5.68,0,0,1-1.78-1.78A4.08,4.08,0,0,1,6.6,62.6Zm14.88.19a1.94,1.94,0,0,0-.41-1.14,3.91,3.91,0,0,0-1.17-1A6.7,6.7,0,0,0,18,58.62a10.33,10.33,0,0,0-2.46-.27,10.33,10.33,0,0,0-2.46.27,6.7,6.7,0,0,0-1.86.73,3.9,3.9,0,0,0-1.17,1,1.94,1.94,0,0,0-.41,1.14v.89a1.94,1.94,0,0,0,.41,1.14,3.91,3.91,0,0,0,1.17,1,6.68,6.68,0,0,0,1.86.73,10.33,10.33,0,0,0,2.46.27A10.33,10.33,0,0,0,18,65.31a6.68,6.68,0,0,0,1.86-.73,3.92,3.92,0,0,0,1.17-1,1.94,1.94,0,0,0,.41-1.14Zm-.16-6.16V47.94H15.93v-2.7h5.39V38.07h3.11V55.36Z"/><path class="cls-1" d="M50.35,55.24H42.26v5.52H54.13v2.67H27.29V60.76H39.12V55.24H31.06v-15h3.11v5H47.24v-5h3.11ZM34.17,52.57H47.24v-4.7H34.17Z"/><path class="cls-1" d="M81.41,51.84v2.6H54.57v-2.6Zm-23,15.71V60.63H74.46V58.82H58.25V56.28H77.54v6.82H61.49V65H78.4v2.54Zm0-17.51V43.15H74.3V41.34h-16V38.8h19.1v6.79H61.52v1.9H78V50Z"/><path class="cls-1" d="M97.85,38.61a8.39,8.39,0,0,1,3.17.56,6.92,6.92,0,0,1,2.27,1.44,6.18,6.18,0,0,1,1.36,2,5.29,5.29,0,0,1,.46,2.11v1.21a5.29,5.29,0,0,1-.46,2.11,6.16,6.16,0,0,1-1.36,2A6.91,6.91,0,0,1,101,51.38a9.34,9.34,0,0,1-6.35,0,6.89,6.89,0,0,1-2.27-1.44A6.15,6.15,0,0,1,91,48a5.28,5.28,0,0,1-.46-2.11V44.67A5.28,5.28,0,0,1,91,42.56a6.16,6.16,0,0,1,1.36-2,6.9,6.9,0,0,1,2.27-1.44A8.38,8.38,0,0,1,97.85,38.61Zm0,10.63a5.06,5.06,0,0,0,1.81-.3,4.13,4.13,0,0,0,1.33-.79,3.4,3.4,0,0,0,.82-1.13,3.07,3.07,0,0,0,.29-1.27v-1a3,3,0,0,0-.29-1.25,3.46,3.46,0,0,0-.82-1.11,4.15,4.15,0,0,0-1.33-.79,5.58,5.58,0,0,0-3.62,0,4.14,4.14,0,0,0-1.33.79,3.46,3.46,0,0,0-.82,1.11,3,3,0,0,0-.29,1.25v1A3.07,3.07,0,0,0,93.88,47a3.4,3.4,0,0,0,.82,1.13,4.12,4.12,0,0,0,1.33.79A5.06,5.06,0,0,0,97.85,49.24ZM94.93,67.52v-8h14.88V56.7h-15V54.1h18.12v8H98v2.86h15.71v2.6Zm22.11-21h-4.16v6.16h-3.11V38.07h3.11v5.68H117Z"/><path class="cls-1" d="M122.08,51.33v6.16h2.67q1.59,0,2.89,0t2.46-.11q1.16-.08,2.28-.19t2.36-.3l.35,2.67q-1.11.16-2.24.29t-2.44.21q-1.32.08-2.89.13t-3.54,0h-5V48.7h8.85V43.12h-8.95v-2.7h12.06V51.33Zm16.44,16V54.1h-5.36V51.33h5.36V47.05h-5.36V44.29h5.36V38.07h3.14V67.33Z"/><path class="cls-1" d="M156.19,67.33v-10H144.36V54.63H171.2V57.3H159.36v10Zm5.14-17.93a17.47,17.47,0,0,1-2.41-1.4,3.67,3.67,0,0,1-1.11-1.14h0A3.39,3.39,0,0,1,156.68,48a17.3,17.3,0,0,1-2.43,1.41l-2.9,1.4q-1.6.76-3.6,1.52l-1.24-2.57q1.78-.67,3.49-1.44t3.24-1.6a7.92,7.92,0,0,0,1.54-1,4.54,4.54,0,0,0,.9-1.06,3.53,3.53,0,0,0,.43-1.09,5.75,5.75,0,0,0,.11-1.13h-8.41V39.75h20v2.67h-8.44a5.67,5.67,0,0,0,.11,1.13,3.73,3.73,0,0,0,.41,1.09,4.2,4.2,0,0,0,.89,1.06,7.9,7.9,0,0,0,1.54,1q1.52.83,3.24,1.6T169,49.78l-1.21,2.54q-2-.76-3.6-1.52Z"/><path class="cls-1" d="M178.94,52.86a4.27,4.27,0,0,1-.52,1q-.37.54-.84,1.11-1,1.14-2.14,2.43T172.94,60l-2.13-2.13q1.43-1.4,2.74-2.79a34.28,34.28,0,0,0,2.33-2.73,7.79,7.79,0,0,0,.78-1.25,6.24,6.24,0,0,0,.46-1.29,8.43,8.43,0,0,0,.21-1.41q0-.75,0-1.6V40.45h3V46.8q0,.86,0,1.55a7.9,7.9,0,0,0,.21,1.35,6.5,6.5,0,0,0,.44,1.25,6.33,6.33,0,0,0,.79,1.24q1,1.33,2.24,2.65t2.65,2.71l-2.16,2.06q-1.27-1.27-2.33-2.4t-2-2.27a12.94,12.94,0,0,1-.83-1.09,4.22,4.22,0,0,1-.51-1Zm9.3-14.18h3.08V65.9h-3.08V50.26h-4.7V47.53h4.7Zm8.88,28.65H194V38.07h3.08Z"/><path class="cls-1" d="M225.77,60.76v2.67H198.93V60.76h6.69V53.68a7.25,7.25,0,0,1-2.27-2.27,5.72,5.72,0,0,1-.84-3.09V46.8a5.72,5.72,0,0,1,.78-3,7.17,7.17,0,0,1,2.13-2.25,10.21,10.21,0,0,1,3.14-1.43,14.86,14.86,0,0,1,7.58,0,10.22,10.22,0,0,1,3.14,1.43,7.19,7.19,0,0,1,2.13,2.25,5.73,5.73,0,0,1,.78,3v1.52a5.73,5.73,0,0,1-.84,3.09,7.26,7.26,0,0,1-2.27,2.27v7.08ZM212.35,42.39a10.27,10.27,0,0,0-2.59.32,7.67,7.67,0,0,0-2.16.9,4.59,4.59,0,0,0-1.48,1.44,3.5,3.5,0,0,0-.54,1.9v1.21a3.5,3.5,0,0,0,.54,1.9,4.58,4.58,0,0,0,1.48,1.44,7.61,7.61,0,0,0,2.16.9,10.69,10.69,0,0,0,5.17,0,7.63,7.63,0,0,0,2.16-.9,4.59,4.59,0,0,0,1.48-1.44,3.5,3.5,0,0,0,.54-1.9V47a3.5,3.5,0,0,0-.54-1.9,4.6,4.6,0,0,0-1.48-1.44,7.69,7.69,0,0,0-2.16-.9A10.28,10.28,0,0,0,212.35,42.39Zm0,13a14.35,14.35,0,0,1-3.62-.44v5.77H216V55A14.85,14.85,0,0,1,212.35,55.43Z"/><path class="cls-1" d="M228.94,61.36h3.62V65h-3.62Zm.48-3.27L229,39.6h3.55l-.44,18.5Z"/><path class="cls-1" d="M5.52,139.85H2.38V117h8.28a9.41,9.41,0,0,1,3.11.48,6.67,6.67,0,0,1,2.28,1.3,5.57,5.57,0,0,1,1.41,2,6.28,6.28,0,0,1,.49,2.51v.82a6,6,0,0,1-1,3.43,5.94,5.94,0,0,1-2.84,2.22l4.54,10.15h-3.4l-4.12-9.55H5.52Zm0-12.21H9.9a5.69,5.69,0,0,0,3.79-1A3.41,3.41,0,0,0,14.82,124v-.63a3.38,3.38,0,0,0-1.11-2.67,5.17,5.17,0,0,0-3.49-1H5.52Z"/><path class="cls-1" d="M37.09,117v2.7H26v7.11H36.42v2.7H26v7.68H37.31v2.7H22.84V117Z"/><path class="cls-1" d="M40,134.52q2.54-1.49,4.3-2.65a34.66,34.66,0,0,0,2.92-2.11A12.24,12.24,0,0,0,49.08,128a6.22,6.22,0,0,0,1-1.7,6.77,6.77,0,0,0,.4-1.76q.08-.9.08-2v-2.82H40.61v-2.7h13v5.55q0,1.46-.08,2.6a8.2,8.2,0,0,1-.44,2.17,7.72,7.72,0,0,1-1.11,2,13.29,13.29,0,0,1-2.08,2.13,39.84,39.84,0,0,1-3.35,2.49q-2,1.36-4.9,3.11Zm26.81-6.76H62.34v15.71H59.2V114.22h3.14V125h4.51Z"/><path class="cls-1" d="M81.76,116.41a5.61,5.61,0,0,1,5.84,4.25h3.93v-5.84h3V142h-3V131.92H87.66A6.28,6.28,0,0,1,77,134.22q-1.62-2.11-1.62-6.3v-3.11Q75.35,116.41,81.76,116.41Zm0,17.16A2.77,2.77,0,0,0,84.43,132a10,10,0,0,0,.79-4.47v-2.41a9.67,9.67,0,0,0-.81-4.47,3.1,3.1,0,0,0-5.3,0,9.67,9.67,0,0,0-.81,4.47v2.41a9.77,9.77,0,0,0,.81,4.49A2.78,2.78,0,0,0,81.76,133.57Zm6.41-5.65q0,.35,0,.67t0,.63h3.43v-5.87H88.11q0,.35,0,.71t0,.75Zm12,15.55H97.05V114.22h3.08Z"/><path class="cls-1" d="M110.44,124.31a3.71,3.71,0,0,1-.76,1.14,17,17,0,0,1-1.36,1.4q-1,.92-2.28,2T103.46,131l-1.87-2.22q1.52-1.17,2.9-2.35t2.21-2a9.37,9.37,0,0,0,1-1.16,5.57,5.57,0,0,0,.63-1.14,5.33,5.33,0,0,0,.33-1.25,10.6,10.6,0,0,0,.1-1.49v-3.84h3.17v3.71q0,.73,0,1.32a5,5,0,0,0,.21,1.09,3.79,3.79,0,0,0,.49,1,5.46,5.46,0,0,0,.9,1q1.11,1,2.43,2.09t2.74,2.09L116.91,130q-1.24-.92-2.36-1.86l-2.27-1.89a11.38,11.38,0,0,1-1.19-1.11,3.6,3.6,0,0,1-.62-.86Zm-3,13.14a4.15,4.15,0,0,1,.6-2.16,5.57,5.57,0,0,1,1.74-1.78,9.44,9.44,0,0,1,2.78-1.21,15.6,15.6,0,0,1,7.39,0,9.44,9.44,0,0,1,2.78,1.21,5.57,5.57,0,0,1,1.75,1.78,4.16,4.16,0,0,1,.6,2.16v1.27a4.16,4.16,0,0,1-.6,2.16,5.57,5.57,0,0,1-1.75,1.78,9.46,9.46,0,0,1-2.78,1.21,15.61,15.61,0,0,1-7.39,0,9.45,9.45,0,0,1-2.78-1.21,5.57,5.57,0,0,1-1.74-1.78,4.16,4.16,0,0,1-.6-2.16Zm14.56.19a2.07,2.07,0,0,0-.4-1.16,3.53,3.53,0,0,0-1.14-1,7.16,7.16,0,0,0-1.81-.73,10.19,10.19,0,0,0-4.79,0,7.15,7.15,0,0,0-1.81.73,3.52,3.52,0,0,0-1.14,1,2.06,2.06,0,0,0-.4,1.16v.89a2.06,2.06,0,0,0,.4,1.16,3.52,3.52,0,0,0,1.14,1,7.17,7.17,0,0,0,1.81.73,10.19,10.19,0,0,0,4.79,0,7.18,7.18,0,0,0,1.81-.73,3.53,3.53,0,0,0,1.14-1,2.07,2.07,0,0,0,.4-1.16ZM129.1,124h-4.16v7.46h-3.11V114.22h3.11v7.08h4.16Z"/><path class="cls-1" d="M150.16,135.63h-11.8V117h11.8ZM141.44,133h5.65V119.68h-5.65Zm21.19,10.5h-3.08V127.35h-3.33V142h-3.08V114.82h3.08v9.8h3.33V114.22h3.08Z"/><path class="cls-1" d="M177.45,135.63h-11.8V117h11.8ZM168.72,133h5.65V119.68h-5.65Zm21.19,10.5h-3.08V127.35h-3.33V142h-3.08V114.82h3.08v9.8h3.33V114.22h3.08Z"/><path class="cls-1" d="M192.33,134.52q2.54-1.49,4.3-2.65a34.66,34.66,0,0,0,2.92-2.11,12.24,12.24,0,0,0,1.82-1.79,6.22,6.22,0,0,0,1-1.7,6.77,6.77,0,0,0,.4-1.76q.08-.9.08-2v-2.82H192.9v-2.7h13v5.55q0,1.46-.08,2.6a8.2,8.2,0,0,1-.44,2.17,7.72,7.72,0,0,1-1.11,2,13.29,13.29,0,0,1-2.08,2.13,39.84,39.84,0,0,1-3.35,2.49q-2,1.36-4.9,3.11Zm26.81-6.76h-4.51v15.71h-3.14V114.22h3.14V125h4.51Z"/><path class="cls-1" d="M245.85,128v2.6H219V128Zm-23,15.71v-6.92H238.9V135H222.69v-2.54H242v6.82H225.93v1.9h16.91v2.54Zm0-17.51V119.3h15.86v-1.81h-16v-2.54h19.1v6.79H226v1.9h16.43v2.54Z"/><path class="cls-1" d="M26.84,175v2.67H0V175H11.83v-6.25H15V175ZM13.42,163.33a5.11,5.11,0,0,1-1.09,1.16,23.36,23.36,0,0,1-2.43,1.73q-1.62,1-3.14,1.89T3.43,169.9l-1.55-2.51q2-1,3.57-1.89t3.06-1.82a8,8,0,0,0,2.59-2.4,5.73,5.73,0,0,0,.75-3v-.76H3.33v-2.73H23.51v2.73H15v.76a7.62,7.62,0,0,0,.16,1.62,4.28,4.28,0,0,0,.54,1.35,5.8,5.8,0,0,0,1,1.21,11,11,0,0,0,1.59,1.19l1.7,1q.78.48,1.55.9l1.59.86,1.82.94-1.55,2.51-1.86-1L20,168l-1.51-.87q-.75-.44-1.54-1a21.89,21.89,0,0,1-2.4-1.71,5.62,5.62,0,0,1-1.06-1.11Z"/><path class="cls-1" d="M48.61,173.17V162.29H42.86a6.87,6.87,0,0,1-.59,2.16,6.64,6.64,0,0,1-1.4,2,7,7,0,0,1-2.24,1.48,7.75,7.75,0,0,1-3.08.57,7.6,7.6,0,0,1-3.24-.63A7.29,7.29,0,0,1,30,166.25a6.68,6.68,0,0,1-1.81-4.44v-1.65A6.68,6.68,0,0,1,30,155.72a7.31,7.31,0,0,1,2.28-1.62,8.54,8.54,0,0,1,6.3-.06,7.41,7.41,0,0,1,2.22,1.44,6.56,6.56,0,0,1,1.41,2,6.49,6.49,0,0,1,.6,2.14h5.74v-7.3h3.11v20.88Zm-8.73-12.88a4.43,4.43,0,0,0-.25-1.46,3.82,3.82,0,0,0-2.11-2.27,4.72,4.72,0,0,0-2-.36,4.84,4.84,0,0,0-2,.36,3.87,3.87,0,0,0-1.35,1,3.67,3.67,0,0,0-.76,1.32,4.7,4.7,0,0,0-.24,1.46v1.4a4.41,4.41,0,0,0,.25,1.46,3.86,3.86,0,0,0,.78,1.32,3.9,3.9,0,0,0,1.33,1,5.4,5.4,0,0,0,3.9,0,3.82,3.82,0,0,0,2.11-2.27,4.42,4.42,0,0,0,.25-1.46Zm-3.3,18.21H52.32v2.73H33.44v-9.71h3.14Z"/><path class="cls-1" d="M69.13,159.84H54.67v-2.63h5.87v-4.09h3.08v4.09h5.52Zm-6.95,1.46a7.3,7.3,0,0,1,2.65.46,6.35,6.35,0,0,1,2,1.25,5.61,5.61,0,0,1,1.32,1.81,5.17,5.17,0,0,1,.46,2.16v1.52a5.18,5.18,0,0,1-.46,2.16,5.6,5.6,0,0,1-1.32,1.81,6.32,6.32,0,0,1-2,1.25,7.86,7.86,0,0,1-5.3,0,6.32,6.32,0,0,1-2-1.25,5.59,5.59,0,0,1-1.32-1.81,5.17,5.17,0,0,1-.46-2.16V167a5.17,5.17,0,0,1,.46-2.16A5.6,5.6,0,0,1,57.49,163a6.35,6.35,0,0,1,2-1.25A7.3,7.3,0,0,1,62.19,161.3Zm0,10.31a3.85,3.85,0,0,0,1.57-.3,3.59,3.59,0,0,0,1.14-.78,3.36,3.36,0,0,0,.7-1,3,3,0,0,0,.24-1.14v-1.21A3,3,0,0,0,65.6,166a3.36,3.36,0,0,0-.7-1,3.58,3.58,0,0,0-1.14-.78,4.24,4.24,0,0,0-3.14,0,3.57,3.57,0,0,0-1.14.78,3.35,3.35,0,0,0-.7,1,3,3,0,0,0-.24,1.14v1.21a3,3,0,0,0,.24,1.14,3.36,3.36,0,0,0,.7,1,3.58,3.58,0,0,0,1.14.78A3.85,3.85,0,0,0,62.19,171.61ZM71,152.89h3.08v10.25h3.14V152.29H80.3v29.25H77.22V165.87H74.08v14.25H71Z"/><path class="cls-1" d="M116.63,164.48v2.6H104.79v2.73h8V177H96.7v2.16h16.91v2.57h-20V174.5h16.05v-2.13H93.47v-2.57h8.15v-2.73H89.79v-2.6Zm-13.45-5.36a1.61,1.61,0,0,1-.54.54q-.41.29-1,.6t-1.17.59q-.6.27-1.11.46-1.62.64-3.12,1.13l-3.12,1L92,160.86q1.9-.54,3.35-1t2.71-1a10.46,10.46,0,0,0,2.54-1.41,2.25,2.25,0,0,0,1-1.79H93.28v-2.6h19.86v2.6h-8.38a2.15,2.15,0,0,0,1,1.75,12.21,12.21,0,0,0,2.57,1.43q1.24.54,2.71,1t3.35,1l-1,2.57-3.17-1q-1.49-.49-3-1.09-.51-.19-1.14-.48t-1.21-.59a11.33,11.33,0,0,1-1-.59,1.58,1.58,0,0,1-.56-.54Z"/><path class="cls-1" d="M116.34,171.42q1.24-1.46,2.13-2.55a23.91,23.91,0,0,0,1.48-2,11.83,11.83,0,0,0,.92-1.67,7.51,7.51,0,0,0,.49-1.57,12.33,12.33,0,0,0,.21-1.73q0-.92,0-2.09v-2h-3.87v-2.7h6.79v4.76q0,1.4-.06,2.47a13.33,13.33,0,0,1-.27,2,8.79,8.79,0,0,1-.62,1.84,13.41,13.41,0,0,1-1.09,1.89q-.68,1-1.68,2.22t-2.4,2.81Zm6.57,2.41L125,171q.87-1.19,1.48-2.13a13.27,13.27,0,0,0,1-1.71,8.92,8.92,0,0,0,.54-1.57,10.4,10.4,0,0,0,.25-1.7q.06-.9.06-2.08v-4h-2.73v-2.7h5.58V163h3.08V152.89h2.86v27.22h-2.86v-14.4h-3.3a11.84,11.84,0,0,1-.56,2.06,12.06,12.06,0,0,1-1,2.09q-.68,1.11-1.71,2.47t-2.55,3.2Zm19.73,7.71h-2.92V152.29h2.92Z"/><path class="cls-1" d="M171.2,175v2.67H144.36V175h6.69V167.9a7.25,7.25,0,0,1-2.27-2.27,5.72,5.72,0,0,1-.84-3.09V161a5.72,5.72,0,0,1,.78-3,7.17,7.17,0,0,1,2.13-2.25,10.21,10.21,0,0,1,3.14-1.43,14.86,14.86,0,0,1,7.58,0,10.22,10.22,0,0,1,3.14,1.43,7.19,7.19,0,0,1,2.13,2.25,5.73,5.73,0,0,1,.78,3v1.52a5.73,5.73,0,0,1-.84,3.09,7.26,7.26,0,0,1-2.27,2.27V175Zm-13.42-18.37a10.27,10.27,0,0,0-2.59.32,7.67,7.67,0,0,0-2.16.9,4.59,4.59,0,0,0-1.48,1.44,3.5,3.5,0,0,0-.54,1.9v1.21a3.5,3.5,0,0,0,.54,1.9,4.58,4.58,0,0,0,1.48,1.44,7.61,7.61,0,0,0,2.16.9,10.69,10.69,0,0,0,5.17,0,7.63,7.63,0,0,0,2.16-.9,4.59,4.59,0,0,0,1.48-1.44,3.5,3.5,0,0,0,.54-1.9v-1.21a3.5,3.5,0,0,0-.54-1.9,4.6,4.6,0,0,0-1.48-1.44,7.69,7.69,0,0,0-2.16-.9A10.28,10.28,0,0,0,157.78,156.61Zm0,13a14.35,14.35,0,0,1-3.62-.44V175h7.23V169.2A14.85,14.85,0,0,1,157.78,169.65Z"/></g></g></g></svg>