<svg xmlns="http://www.w3.org/2000/svg" xmlns:xlink="http://www.w3.org/1999/xlink" viewBox="0 0 508.05 429.53"><defs><style>.cls-1{fill:none;stroke:#000;stroke-width:7px;}.cls-2{mask:url(#mask);}.cls-3{fill:url(#linear-gradient);}.cls-4{filter:url(#luminosity-invert-noclip);}</style><filter id="luminosity-invert-noclip" x="-87.18" y="-56.33" width="664.5" height="862.71" filterUnits="userSpaceOnUse" color-interpolation-filters="sRGB"><feColorMatrix values="-1 0 0 0 1 0 -1 0 0 1 0 0 -1 0 1 0 0 0 1 0" result="invert"/><feFlood flood-color="#fff" result="bg"/><feBlend in="invert" in2="bg"/></filter><mask id="mask" x="-87.18" y="-56.33" width="664.5" height="862.71" maskUnits="userSpaceOnUse"><g class="cls-4"><path class="cls-1" d="M509.35,29.47H537c16,0,29,4,29,19.12a16.72,16.72,0,0,1-12.74,16.52v.47c10.86,2.12,16.28,7.79,16.28,17.94,0,15.81-13.69,22.66-30.21,22.66h-30Zm27.14,30.21c6.61,0,9.68-3.3,9.68-8s-3.07-6.61-9.68-6.61h-6.84V59.68Zm1.42,30.92c8,0,11.8-3.07,11.8-8.73s-3.78-8-11.8-8h-8.26V90.6Z"/><path class="cls-1" d="M505.34,144.52h20.29v42c0,13.69,3.54,18.64,11.56,18.64s11.8-5,11.8-18.64v-42h19.59v39.65c0,26.2-9.91,38.47-31.39,38.47s-31.86-12.27-31.86-38.47Z"/><path class="cls-1" d="M519,312.79c5.43,4.37,12.27,7.43,17.94,7.43,6.14,0,8.73-2,8.73-5.43,0-3.66-3.89-4.84-10.38-7.43l-9.56-4C517.49,300,510.3,293.08,510.3,282c0-13.1,11.8-23.83,28.56-23.83a36.87,36.87,0,0,1,25.49,10.27l-10.15,12.74c-5.19-3.66-9.68-5.55-15.34-5.55-5,0-8,1.77-8,5.19,0,3.66,4.37,5,11.33,7.67l9.32,3.66c9.56,3.78,15,10.38,15,21,0,13-10.86,24.54-30,24.54a44.42,44.42,0,0,1-29-11Z"/><path class="cls-1" d="M547.34,435H525.87l-3.78,16.28H501.33l23.36-76.7h24.54l23.36,76.7H551.12Zm-3.66-15.69-1.3-5.31c-1.89-7.32-3.78-16.64-5.66-24.31h-.47c-1.65,7.79-3.54,17-5.43,24.31l-1.3,5.31Z"/><path class="cls-1" d="M505.81,489.67h20.77l17,34.22,7.32,17.23h.47c-.94-8.26-2.6-19.82-2.6-29.26V489.67h19.35v76.7H547.35l-17-34.34L523,514.92h-.47c.94,8.73,2.6,19.82,2.6,29.26v22.18H505.81Z"/><path class="cls-1" d="M410.29,73.13h22.66c23.36,0,39.41,10.86,39.41,38s-16,38.7-38.23,38.7H410.29Zm21.48,60.41c11.09,0,19.82-4.48,19.82-22.42s-8.73-21.71-19.82-21.71h-1.18v44.13Z"/><path class="cls-1" d="M450,248.59H428.57l-3.78,16.28H404l23.36-76.7h24.54l23.36,76.7H453.82Zm-3.66-15.69-1.3-5.31c-1.89-7.32-3.78-16.64-5.66-24.31H439c-1.65,7.79-3.54,17-5.43,24.31l-1.3,5.31Z"/><path class="cls-1" d="M415.36,303.23h49.56v17H435.65v12h25v17h-25v13.69H466.1v17H415.36Z"/><path class="cls-1" d="M445.45,416.86A34.28,34.28,0,0,1,470,427L458.9,439.51c-3.78-3.3-7.08-5.19-13.22-5.19-10.38,0-18.17,8.26-18.17,22.18,0,14.39,6.37,22.42,20.06,22.42a11.5,11.5,0,0,0,5.9-1.42V466.89H442.14V450.37h29.26v36.58A43.25,43.25,0,0,1,445,496.39c-21,0-38.23-13-38.23-39.17C406.75,431.49,424.45,416.86,445.45,416.86Z"/><path class="cls-1" d="M408,533.32h20.29v42c0,13.69,3.54,18.64,11.56,18.64s11.8-5,11.8-18.64v-42h19.59V573c0,26.2-9.91,38.47-31.39,38.47S408,599.16,408,573Z"/><path class="cls-1" d="M310.75,105.87H331v42c0,13.69,3.54,18.64,11.56,18.64s11.8-5,11.8-18.64v-42H374v39.65c0,26.2-9.91,38.47-31.39,38.47s-31.86-12.27-31.86-38.47Z"/><path class="cls-1" d="M319.6,220.92h20.29v59.71h29v17H319.6Z"/><path class="cls-1" d="M324.43,389.19c5.43,4.37,12.27,7.43,17.94,7.43,6.14,0,8.73-2,8.73-5.43,0-3.66-3.89-4.84-10.38-7.43l-9.56-4c-8.26-3.3-15.46-10.27-15.46-21.36,0-13.1,11.8-23.83,28.56-23.83a36.87,36.87,0,0,1,25.49,10.27L359.6,357.56c-5.19-3.66-9.68-5.55-15.34-5.55-5,0-8,1.77-8,5.19,0,3.66,4.37,5,11.33,7.67l9.32,3.66c9.56,3.78,15,10.38,15,21,0,13-10.86,24.54-30,24.54a44.42,44.42,0,0,1-29-11Z"/><path class="cls-1" d="M352.75,511.43H331.28l-3.78,16.28H306.73L330.1,451h24.54L378,527.72H356.53Zm-3.66-15.69-1.3-5.31c-1.89-7.32-3.78-16.64-5.66-24.31h-.47c-1.65,7.79-3.54,17-5.43,24.31l-1.3,5.31Z"/><path class="cls-1" d="M311.22,566.07H332l17,34.22,7.32,17.23h.47c-.94-8.26-2.6-19.82-2.6-29.26V566.07h19.35v76.7H352.75l-17-34.34-7.32-17.11H328c.94,8.73,2.6,19.82,2.6,29.26v22.18H311.22Z"/><path class="cls-1" d="M227.14,90.65c5.43,4.37,12.27,7.43,17.94,7.43,6.14,0,8.73-2,8.73-5.43,0-3.66-3.89-4.84-10.38-7.43l-9.56-4c-8.26-3.3-15.46-10.27-15.46-21.36C218.41,46.76,230.21,36,247,36a36.87,36.87,0,0,1,25.49,10.27L262.3,59c-5.19-3.66-9.68-5.55-15.34-5.55-5,0-8,1.77-8,5.19,0,3.66,4.37,5,11.33,7.67L259.59,70c9.56,3.78,15,10.38,15,21,0,13-10.86,24.54-30,24.54a44.42,44.42,0,0,1-29-11Z"/><path class="cls-1" d="M220.77,152.48h49.56v17H241.06v12h25v17h-25v13.69H271.5v17H220.77Z"/><path class="cls-1" d="M209.44,305.53c0-25.25,14.4-39.41,35.63-39.41s35.63,14.28,35.63,39.41-14.4,40.12-35.63,40.12S209.44,330.78,209.44,305.53Zm50.5,0c0-13.92-5.66-21.95-14.87-21.95s-14.87,8-14.87,21.95,5.66,22.66,14.87,22.66S259.94,319.45,259.94,305.53Z"/><path class="cls-1" d="M213.45,382.58h20.29v42c0,13.69,3.54,18.64,11.56,18.64s11.8-5,11.8-18.64v-42H276.7v39.65c0,26.2-9.91,38.47-31.39,38.47s-31.86-12.27-31.86-38.47Z"/><path class="cls-1" d="M222.3,497.63H242.6v59.71h29v17H222.3Z"/><path class="cls-1" d="M220.77,612.67h49.56v17H241.06v12h25v17h-25v13.69H271.5v17H220.77Z"/><path class="cls-1" d="M137.63-20.09h20.29v76.7H137.63Z"/><path class="cls-1" d="M116.63,95h20.77l17,34.22,7.32,17.23h.47c-.94-8.26-2.6-19.82-2.6-29.26V95h19.35v76.7H158.16l-17-34.34-7.32-17.11h-.47c.94,8.73,2.6,19.82,2.6,29.26v22.18H116.63Z"/><path class="cls-1" d="M155.92,208.59c9.68,0,17.94,4.72,23.36,10.15l-11.09,12.51c-3.78-3.3-7.08-5.19-12-5.19-9.2,0-17,8.26-17,22.18,0,14.4,6.61,22.42,16.52,22.42a17.73,17.73,0,0,0,13.45-6.14l11.09,12.27a32.08,32.08,0,0,1-24.78,11.33c-20.06,0-37.05-13-37.05-39.17C118.4,223.22,136.1,208.59,155.92,208.59Z"/><path class="cls-1" d="M116,325.06h20.29v28.56h22.89V325.06h20.3v76.7h-20.3V371.31H136.33v30.44H116Z"/><path class="cls-1" d="M123.47,440.1H173v17H143.77v12h25v17h-25v13.69h30.44v17H123.47Z"/><path class="cls-1" d="M112.14,593.15c0-25.25,14.4-39.41,35.63-39.41s35.63,14.28,35.63,39.41-14.4,40.12-35.63,40.12S112.14,618.4,112.14,593.15Zm50.5,0c0-13.92-5.66-21.95-14.87-21.95s-14.87,8-14.87,21.95,5.66,22.66,14.87,22.66S162.65,607.07,162.65,593.15Z"/><path class="cls-1" d="M116.63,670.2h20.77l17,34.22,7.32,17.23h.47c-.94-8.26-2.6-19.82-2.6-29.26V670.2h19.35v76.7H158.16l-17-34.34-7.32-17.11h-.47c.94,8.73,2.6,19.82,2.6,29.26V746.9H116.63Z"/><path class="cls-1" d="M56.26,33.07A34.28,34.28,0,0,1,80.81,43.22L69.72,55.72c-3.78-3.3-7.08-5.19-13.22-5.19-10.38,0-18.17,8.26-18.17,22.18,0,14.4,6.37,22.42,20.06,22.42a11.5,11.5,0,0,0,5.9-1.42V83.1H53V66.58H82.22v36.58a43.26,43.26,0,0,1-26.43,9.44c-21,0-38.23-13-38.23-39.17C17.56,47.7,35.26,33.07,56.26,33.07Z"/><path class="cls-1" d="M3,149.53H23.81L28.06,183c.83,8,1.77,16,2.6,24.07h.47c1.42-8,2.83-16.17,4.25-24.07l7.32-33.51h17L67,183c1.42,7.67,2.83,15.93,4.25,24.07h.47c.83-8.14,1.77-16.28,2.6-24.07l4.25-33.51H97.92l-12.74,76.7H59.45l-5.9-30.44c-1.18-5.9-2.12-12.27-2.83-17.94h-.47c-.83,5.66-1.65,12-2.83,17.94l-5.66,30.44H16.5Z"/><path class="cls-1" d="M60.86,325H39.39l-3.78,16.28H14.85l23.36-76.7H62.75l23.36,76.7H64.64ZM57.21,309.3,55.91,304c-1.89-7.32-3.78-16.64-5.66-24.31h-.47c-1.65,7.79-3.54,17-5.43,24.31L43,309.3Z"/><path class="cls-1" d="M19.33,379.63H40.1l17,34.22,7.32,17.23h.47c-.94-8.26-2.6-19.82-2.6-29.26V379.63H81.63v76.7H60.87L43.87,422l-7.32-17.11h-.47c.94,8.73,2.6,19.82,2.6,29.26v22.18H19.33Z"/><path class="cls-1" d="M56.26,493.26a34.28,34.28,0,0,1,24.54,10.15L69.72,515.91c-3.78-3.3-7.08-5.19-13.22-5.19-10.38,0-18.17,8.26-18.17,22.18,0,14.39,6.37,22.42,20.06,22.42a11.5,11.5,0,0,0,5.9-1.42V543.29H53V526.77H82.22v36.58a43.25,43.25,0,0,1-26.43,9.44c-21,0-38.23-13-38.23-39.17C17.56,507.89,35.26,493.26,56.26,493.26Z"/><path class="cls-1" d="M34.67,663.06c2.6,5,6.37,7.32,9.68,7.32,5.43,0,8.5-2.6,8.5-12.27V609.72h20.3v50c0,15.34-8.26,28.08-26,28.08-12.51,0-20.53-4.72-26.2-14.51Z"/><path class="cls-1" d="M18.86,724.77H39.15v42c0,13.69,3.54,18.64,11.56,18.64s11.8-5,11.8-18.64v-42H82.1v39.65c0,26.2-9.91,38.47-31.39,38.47s-31.86-12.27-31.86-38.47Z"/><path class="cls-1" d="M-76.2-52.83h22.66c23.36,0,39.41,10.86,39.41,38s-16,38.7-38.23,38.7H-76.2ZM-54.72,7.58c11.09,0,19.82-4.48,19.82-22.42s-8.73-21.71-19.82-21.71H-55.9V7.58Z"/><path class="cls-1" d="M-36.43,122.63H-57.91l-3.78,16.28H-82.45l23.36-76.7h24.54l23.36,76.7H-32.66Zm-3.66-15.69-1.3-5.31c-1.89-7.32-3.78-16.64-5.66-24.31h-.47c-1.65,7.79-3.54,17-5.43,24.31l-1.3,5.31Z"/><path class="cls-1" d="M-71.12,177.26h49.56v17H-50.83v12h25v17h-25V237h30.44v17H-71.12Z"/><path class="cls-1" d="M-62.63,345.65c2.6,5,6.37,7.32,9.68,7.32,5.43,0,8.5-2.6,8.5-12.27V292.31h20.3v50c0,15.34-8.26,28.08-26,28.08-12.51,0-20.53-4.72-26.2-14.51Z"/><path class="cls-1" d="M-71.12,407.36h49.56v17H-50.83v12h25v17h-25v13.69h30.44v17H-71.12Z"/><path class="cls-1" d="M-82.45,560.4c0-25.25,14.4-39.41,35.63-39.41s35.63,14.28,35.63,39.41-14.4,40.12-35.63,40.12S-82.45,585.65-82.45,560.4Zm50.5,0c0-13.92-5.66-21.95-14.87-21.95s-14.87,8-14.87,21.95,5.66,22.66,14.87,22.66S-31.95,574.33-31.95,560.4Z"/><path class="cls-1" d="M-78,637.46H-57.2l17,34.22,7.32,17.23h.47c-.94-8.26-2.6-19.82-2.6-29.26V637.46h19.35v76.7H-36.43l-17-34.34-7.32-17.11h-.47c.94,8.73,2.6,19.82,2.6,29.26v22.18H-78Z"/></g></mask><linearGradient id="linear-gradient" y1="214.76" x2="508.05" y2="214.76" gradientUnits="userSpaceOnUse"><stop offset="0" stop-color="#ff5c6a"/><stop offset="1" stop-color="#ff826a"/></linearGradient></defs><title>penta_uper_square</title><g id="Layer_2" data-name="Layer 2"><g id="Layer_1-2" data-name="Layer 1"><g class="cls-2"><rect id="penta_uper_square" class="cls-3" width="508.05" height="429.53"/></g></g></g></svg>