<svg xmlns="http://www.w3.org/2000/svg" viewBox="0 0 70.32 671.27"><defs><style>.cls-1,.cls-2{fill:none;stroke-width:3px;}.cls-1{stroke:blue;}.cls-2{stroke:#fff;}</style></defs><title>Asset 15</title><g id="Layer_2" data-name="Layer 2"><g id="Layer_1-2" data-name="Layer 1"><g id="INCHEON"><path class="cls-1" d="M23.71,1.5H41.39V68.33H23.71Z"/><path class="cls-1" d="M5.41,101.74H23.5l14.8,29.81,6.37,15h.41c-.82-7.2-2.26-17.27-2.26-25.5V101.74H59.69v66.83H41.6l-14.8-29.92-6.37-14.91H20c.82,7.61,2.26,17.27,2.26,25.5v19.33H5.41Z"/><path class="cls-1" d="M39.64,200.75c8.43,0,15.63,4.11,20.36,8.84l-9.66,10.9C47,217.61,44.17,216,39.85,216c-8,0-14.8,7.2-14.8,19.33,0,12.54,5.76,19.53,14.39,19.53a15.45,15.45,0,0,0,11.72-5.35l9.66,10.69A28,28,0,0,1,39.23,270c-17.48,0-32.28-11.31-32.28-34.13C6.95,213.5,22.37,200.75,39.64,200.75Z"/><path class="cls-1" d="M4.89,302.22H22.57V327.1H42.52V302.22H60.2v66.83H42.52V342.53H22.57v26.53H4.89Z"/><path class="cls-1" d="M11.37,402.46H54.55v14.8H29.05v10.49h21.8v14.8H29.05v11.93H55.58v14.8H11.37Z"/><path class="cls-1" d="M1.5,535.81c0-22,12.54-34.34,31-34.34s31,12.44,31,34.34-12.54,35-31,35S1.5,557.81,1.5,535.81Zm44,0c0-12.13-4.93-19.12-13-19.12s-13,7-13,19.12,4.94,19.74,13,19.74S45.5,547.94,45.5,535.81Z"/><path class="cls-1" d="M5.41,602.95H23.5l14.8,29.82,6.37,15h.41c-.82-7.2-2.26-17.27-2.26-25.5V602.95H59.69v66.83H41.6l-14.8-29.92-6.37-14.91H20c.82,7.61,2.26,17.27,2.26,25.5v19.33H5.41Z"/><path class="cls-2" d="M26.32,1.5H44V68.33H26.32Z"/><path class="cls-2" d="M8,101.74H26.11l14.8,29.81,6.37,15h.41c-.82-7.2-2.26-17.27-2.26-25.5V101.74H62.3v66.83H44.21L29.4,138.65,23,123.74h-.41c.82,7.61,2.26,17.27,2.26,25.5v19.33H8Z"/><path class="cls-2" d="M42.26,200.75c8.43,0,15.63,4.11,20.36,8.84l-9.66,10.9c-3.29-2.88-6.17-4.52-10.49-4.52-8,0-14.8,7.2-14.8,19.33,0,12.54,5.76,19.53,14.39,19.53a15.45,15.45,0,0,0,11.72-5.35l9.66,10.69A28,28,0,0,1,41.84,270c-17.48,0-32.28-11.31-32.28-34.13C9.56,213.5,25,200.75,42.26,200.75Z"/><path class="cls-2" d="M7.51,302.22H25.19V327.1H45.13V302.22H62.82v66.83H45.13V342.53H25.19v26.53H7.51Z"/><path class="cls-2" d="M14,402.46H57.16v14.8H31.67v10.49h21.8v14.8H31.67v11.93H58.19v14.8H14Z"/><path class="cls-2" d="M4.11,535.81c0-22,12.54-34.34,31-34.34s31,12.44,31,34.34-12.54,35-31,35S4.11,557.81,4.11,535.81Zm44,0c0-12.13-4.93-19.12-13-19.12s-13,7-13,19.12,4.94,19.74,13,19.74S48.12,547.94,48.12,535.81Z"/><path class="cls-2" d="M8,602.95H26.11l14.8,29.82,6.37,15h.41c-.82-7.2-2.26-17.27-2.26-25.5V602.95H62.3v66.83H44.21L29.4,639.86,23,624.95h-.41c.82,7.61,2.26,17.27,2.26,25.5v19.33H8Z"/><path class="cls-2" d="M28.93,1.5H46.62V68.33H28.93Z"/><path class="cls-2" d="M10.63,101.74H28.73l14.8,29.81,6.37,15h.41c-.82-7.2-2.26-17.27-2.26-25.5V101.74H64.92v66.83H46.82L32,138.65l-6.37-14.91h-.41c.82,7.61,2.26,17.27,2.26,25.5v19.33H10.63Z"/><path class="cls-2" d="M44.87,200.75c8.43,0,15.63,4.11,20.36,8.84l-9.66,10.9c-3.29-2.88-6.17-4.52-10.49-4.52-8,0-14.8,7.2-14.8,19.33,0,12.54,5.76,19.53,14.39,19.53a15.45,15.45,0,0,0,11.72-5.35L66,260.17A28,28,0,0,1,44.46,270C27,270,12.18,258.73,12.18,235.91,12.18,213.5,27.6,200.75,44.87,200.75Z"/><path class="cls-2" d="M10.12,302.22H27.8V327.1H47.75V302.22H65.43v66.83H47.75V342.53H27.8v26.53H10.12Z"/><path class="cls-2" d="M16.6,402.46H59.78v14.8H34.28v10.49h21.8v14.8H34.28v11.93H60.81v14.8H16.6Z"/><path class="cls-2" d="M6.73,535.81c0-22,12.54-34.34,31-34.34s31,12.44,31,34.34-12.54,35-31,35S6.73,557.81,6.73,535.81Zm44,0c0-12.13-4.93-19.12-13-19.12s-13,7-13,19.12,4.94,19.74,13,19.74S50.73,547.94,50.73,535.81Z"/><path class="cls-2" d="M10.63,602.95H28.73l14.8,29.82,6.37,15h.41c-.82-7.2-2.26-17.27-2.26-25.5V602.95H64.92v66.83H46.82L32,639.86l-6.37-14.91h-.41c.82,7.61,2.26,17.27,2.26,25.5v19.33H10.63Z"/></g></g></g></svg>