<svg xmlns="http://www.w3.org/2000/svg" xmlns:xlink="http://www.w3.org/1999/xlink" viewBox="0 0 70.32 572.27"><defs><style>.cls-1{fill:url(#linear-gradient);}.cls-2,.cls-3{fill:none;stroke-width:3px;}.cls-2{stroke:blue;}.cls-3{stroke:#fff;}</style><linearGradient id="linear-gradient" x1="28.41" y1="34.05" x2="28.41" y2="34.05" gradientUnits="userSpaceOnUse"><stop offset="0" stop-color="#ff5c6a"/><stop offset="1" stop-color="#ff826a"/></linearGradient></defs><title>Asset 14</title><g id="Layer_2" data-name="Layer 2"><g id="Layer_1-2" data-name="Layer 1"><g id="SEOULE"><path class="cls-1" d="M28.41,34"/><path class="cls-2" d="M16.92,49.1c4.73,3.8,10.69,6.48,15.63,6.48,5.35,0,7.61-1.75,7.61-4.73,0-3.19-3.39-4.22-9-6.48l-8.33-3.5C15.58,38,9.31,31.93,9.31,22.27,9.31,10.86,19.59,1.5,34.19,1.5A32.13,32.13,0,0,1,56.4,10.44l-8.84,11.1c-4.52-3.19-8.43-4.83-13.37-4.83-4.32,0-7,1.54-7,4.52,0,3.19,3.8,4.32,9.87,6.68l8.12,3.19c8.33,3.29,13.06,9,13.06,18.3,0,11.31-9.46,21.38-26.11,21.38A38.7,38.7,0,0,1,6.85,61.23Z"/><path class="cls-2" d="M11.37,103H54.55v14.8H29.05v10.49h21.8v14.8H29.05V155H55.58v14.8H11.37Z"/><path class="cls-2" d="M1.5,236.32c0-22,12.54-34.34,31-34.34s31,12.44,31,34.34-12.54,35-31,35S1.5,258.32,1.5,236.32Zm44,0c0-12.13-4.93-19.12-13-19.12s-13,7-13,19.12,4.94,19.74,13,19.74S45.5,248.45,45.5,236.32Z"/><path class="cls-2" d="M5,303.46H22.68v36.6c0,11.93,3.08,16.24,10.08,16.24S43,352,43,340.06v-36.6H60.1V338c0,22.82-8.64,33.52-27.35,33.52S5,360.83,5,338Z"/><path class="cls-2" d="M12.71,403.7H30.39v52H55.68v14.8h-43Z"/><path class="cls-2" d="M11.37,503.94H54.55v14.8H29.05v10.49h21.8V544H29.05V556H55.58v14.8H11.37Z"/><path class="cls-3" d="M19.53,49.1c4.73,3.8,10.69,6.48,15.63,6.48,5.35,0,7.61-1.75,7.61-4.73,0-3.19-3.39-4.22-9-6.48l-8.33-3.5C18.2,38,11.93,31.93,11.93,22.27,11.93,10.86,22.21,1.5,36.81,1.5A32.13,32.13,0,0,1,59,10.44l-8.84,11.1c-4.52-3.19-8.43-4.83-13.37-4.83-4.32,0-7,1.54-7,4.52,0,3.19,3.8,4.32,9.87,6.68l8.12,3.19c8.33,3.29,13.06,9,13.06,18.3,0,11.31-9.46,21.38-26.11,21.38A38.7,38.7,0,0,1,9.46,61.23Z"/><path class="cls-3" d="M14,103H57.16v14.8H31.67v10.49h21.8v14.8H31.67V155H58.19v14.8H14Z"/><path class="cls-3" d="M4.11,236.32c0-22,12.54-34.34,31-34.34s31,12.44,31,34.34-12.54,35-31,35S4.11,258.32,4.11,236.32Zm44,0c0-12.13-4.93-19.12-13-19.12s-13,7-13,19.12,4.94,19.74,13,19.74S48.12,248.45,48.12,236.32Z"/><path class="cls-3" d="M7.61,303.46H25.29v36.6c0,11.93,3.08,16.24,10.08,16.24S45.65,352,45.65,340.06v-36.6H62.72V338c0,22.82-8.64,33.52-27.35,33.52S7.61,360.83,7.61,338Z"/><path class="cls-3" d="M15.32,403.7H33v52H58.29v14.8h-43Z"/><path class="cls-3" d="M14,503.94H57.16v14.8H31.67v10.49h21.8V544H31.67V556H58.19v14.8H14Z"/><path class="cls-3" d="M22.15,49.1c4.73,3.8,10.69,6.48,15.63,6.48,5.35,0,7.61-1.75,7.61-4.73,0-3.19-3.39-4.22-9-6.48L28,40.88C20.81,38,14.54,31.93,14.54,22.27,14.54,10.86,24.82,1.5,39.42,1.5a32.13,32.13,0,0,1,22.21,8.94l-8.84,11.1c-4.52-3.19-8.43-4.83-13.37-4.83-4.32,0-7,1.54-7,4.52,0,3.19,3.8,4.32,9.87,6.68l8.12,3.19c8.33,3.29,13.06,9,13.06,18.3,0,11.31-9.46,21.38-26.11,21.38a38.7,38.7,0,0,1-25.29-9.56Z"/><path class="cls-3" d="M16.6,103H59.78v14.8H34.28v10.49h21.8v14.8H34.28V155H60.81v14.8H16.6Z"/><path class="cls-3" d="M6.73,236.32c0-22,12.54-34.34,31-34.34s31,12.44,31,34.34-12.54,35-31,35S6.73,258.32,6.73,236.32Zm44,0c0-12.13-4.93-19.12-13-19.12s-13,7-13,19.12,4.94,19.74,13,19.74S50.73,248.45,50.73,236.32Z"/><path class="cls-3" d="M10.22,303.46H27.91v36.6C27.91,352,31,356.3,38,356.3S48.26,352,48.26,340.06v-36.6H65.33V338c0,22.82-8.64,33.52-27.35,33.52S10.22,360.83,10.22,338Z"/><path class="cls-3" d="M17.93,403.7H35.62v52H60.91v14.8h-43Z"/><path class="cls-3" d="M16.6,503.94H59.78v14.8H34.28v10.49h21.8V544H34.28V556H60.81v14.8H16.6Z"/></g></g></g></svg>