<svg xmlns="http://www.w3.org/2000/svg" xmlns:xlink="http://www.w3.org/1999/xlink" viewBox="0 0 1921 1081"><defs><style>.cls-1{fill:url(#linear-gradient);}.cls-10,.cls-11,.cls-12,.cls-13,.cls-14,.cls-15,.cls-16,.cls-17,.cls-18,.cls-19,.cls-2,.cls-20,.cls-21,.cls-22,.cls-23,.cls-24,.cls-25,.cls-26,.cls-27,.cls-28,.cls-29,.cls-3,.cls-30,.cls-31,.cls-32,.cls-33,.cls-34,.cls-35,.cls-36,.cls-37,.cls-38,.cls-39,.cls-4,.cls-40,.cls-41,.cls-42,.cls-43,.cls-44,.cls-45,.cls-46,.cls-47,.cls-48,.cls-49,.cls-5,.cls-50,.cls-51,.cls-52,.cls-53,.cls-54,.cls-55,.cls-56,.cls-57,.cls-58,.cls-59,.cls-6,.cls-60,.cls-61,.cls-62,.cls-63,.cls-64,.cls-65,.cls-66,.cls-67,.cls-68,.cls-69,.cls-7,.cls-70,.cls-71,.cls-72,.cls-8,.cls-9{fill:none;stroke-miterlimit:10;}.cls-2{stroke:url(#linear-gradient-2);}.cls-3{stroke:url(#linear-gradient-3);}.cls-4{stroke:url(#linear-gradient-4);}.cls-5{stroke:url(#linear-gradient-5);}.cls-6{stroke:url(#linear-gradient-6);}.cls-7{stroke:url(#linear-gradient-7);}.cls-8{stroke:url(#linear-gradient-8);}.cls-9{stroke:url(#linear-gradient-9);}.cls-10{stroke:url(#linear-gradient-10);}.cls-11{stroke:url(#linear-gradient-11);}.cls-12{stroke:url(#linear-gradient-12);}.cls-13{stroke:url(#linear-gradient-13);}.cls-14{stroke:url(#linear-gradient-14);}.cls-15{stroke:url(#linear-gradient-15);}.cls-16{stroke:url(#linear-gradient-16);}.cls-17{stroke:url(#linear-gradient-17);}.cls-18{stroke:url(#linear-gradient-18);}.cls-19{stroke:url(#linear-gradient-19);}.cls-20{stroke:url(#linear-gradient-20);}.cls-21{stroke:url(#linear-gradient-21);}.cls-22{stroke:url(#linear-gradient-22);}.cls-23{stroke:url(#linear-gradient-23);}.cls-24{stroke:url(#linear-gradient-24);}.cls-25{stroke:url(#linear-gradient-25);}.cls-26{stroke:url(#linear-gradient-26);}.cls-27{stroke:url(#linear-gradient-27);}.cls-28{stroke:url(#linear-gradient-28);}.cls-29{stroke:url(#linear-gradient-29);}.cls-30{stroke:url(#linear-gradient-30);}.cls-31{stroke:url(#linear-gradient-31);}.cls-32{stroke:url(#linear-gradient-32);}.cls-33{stroke:url(#linear-gradient-33);}.cls-34{stroke:url(#linear-gradient-34);}.cls-35{stroke:url(#linear-gradient-35);}.cls-36{stroke:url(#linear-gradient-36);}.cls-37{stroke:url(#linear-gradient-37);}.cls-38{stroke:url(#linear-gradient-38);}.cls-39{stroke:url(#linear-gradient-39);}.cls-40{stroke:url(#linear-gradient-40);}.cls-41{stroke:url(#linear-gradient-41);}.cls-42{stroke:url(#linear-gradient-42);}.cls-43{stroke:url(#linear-gradient-43);}.cls-44{stroke:url(#linear-gradient-44);}.cls-45{stroke:url(#linear-gradient-45);}.cls-46{stroke:url(#linear-gradient-46);}.cls-47{stroke:url(#linear-gradient-47);}.cls-48{stroke:url(#linear-gradient-48);}.cls-49{stroke:url(#linear-gradient-49);}.cls-50{stroke:url(#linear-gradient-50);}.cls-51{stroke:url(#linear-gradient-51);}.cls-52{stroke:url(#linear-gradient-52);}.cls-53{stroke:url(#linear-gradient-53);}.cls-54{stroke:url(#linear-gradient-54);}.cls-55{stroke:url(#linear-gradient-55);}.cls-56{stroke:url(#linear-gradient-56);}.cls-57{stroke:url(#linear-gradient-57);}.cls-58{stroke:url(#linear-gradient-58);}.cls-59{stroke:url(#linear-gradient-59);}.cls-60{stroke:url(#linear-gradient-60);}.cls-61{stroke:url(#linear-gradient-61);}.cls-62{stroke:url(#linear-gradient-62);}.cls-63{stroke:url(#linear-gradient-63);}.cls-64{stroke:url(#linear-gradient-64);}.cls-65{stroke:url(#linear-gradient-65);}.cls-66{stroke:url(#linear-gradient-66);}.cls-67{stroke:url(#linear-gradient-67);}.cls-68{stroke:url(#linear-gradient-68);}.cls-69{stroke:url(#linear-gradient-69);}.cls-70{stroke:url(#linear-gradient-70);}.cls-71{stroke:url(#linear-gradient-71);}.cls-72{stroke:url(#linear-gradient-72);}</style><linearGradient id="linear-gradient" x1="960.5" y1="0.5" x2="960.5" y2="1080.5" gradientUnits="userSpaceOnUse"><stop offset="0" stop-color="#3f3f3f"/><stop offset="0.34" stop-color="#3b3b3b"/><stop offset="0.65" stop-color="#303030"/><stop offset="0.96" stop-color="#1d1d1d"/><stop offset="1" stop-color="#1a1a1a"/></linearGradient><linearGradient id="linear-gradient-2" x1="1887.24" y1="1081" x2="1887.24" gradientUnits="userSpaceOnUse"><stop offset="0" stop-color="#b3b3b3"/><stop offset="0" stop-color="#b1b1b1"/><stop offset="0.13" stop-color="#8e8e8e"/><stop offset="0.27" stop-color="#727272"/><stop offset="0.42" stop-color="#5b5b5b"/><stop offset="0.58" stop-color="#4b4b4b"/><stop offset="0.75" stop-color="#424242"/><stop offset="1" stop-color="#3f3f3f"/></linearGradient><linearGradient id="linear-gradient-3" x1="1914.5" x2="1914.5" y2="0" xlink:href="#linear-gradient-2"/><linearGradient id="linear-gradient-4" x1="1859.99" x2="1859.99" y2="0" xlink:href="#linear-gradient-2"/><linearGradient id="linear-gradient-5" x1="1832.73" x2="1832.73" y2="0" xlink:href="#linear-gradient-2"/><linearGradient id="linear-gradient-6" x1="1805.47" x2="1805.47" y2="0" xlink:href="#linear-gradient-2"/><linearGradient id="linear-gradient-7" x1="1778.21" x2="1778.21" y2="0" xlink:href="#linear-gradient-2"/><linearGradient id="linear-gradient-8" x1="1750.96" x2="1750.96" y2="0" xlink:href="#linear-gradient-2"/><linearGradient id="linear-gradient-9" x1="1723.7" x2="1723.7" y2="0" xlink:href="#linear-gradient-2"/><linearGradient id="linear-gradient-10" x1="1696.44" x2="1696.44" y2="0" xlink:href="#linear-gradient-2"/><linearGradient id="linear-gradient-11" x1="1669.19" x2="1669.19" y2="0" xlink:href="#linear-gradient-2"/><linearGradient id="linear-gradient-12" x1="1641.93" x2="1641.93" y2="0" xlink:href="#linear-gradient-2"/><linearGradient id="linear-gradient-13" x1="1614.67" x2="1614.67" y2="0" xlink:href="#linear-gradient-2"/><linearGradient id="linear-gradient-14" x1="1587.41" x2="1587.41" y2="0" xlink:href="#linear-gradient-2"/><linearGradient id="linear-gradient-15" x1="1560.16" x2="1560.16" y2="0" xlink:href="#linear-gradient-2"/><linearGradient id="linear-gradient-16" x1="1532.9" x2="1532.9" y2="0" xlink:href="#linear-gradient-2"/><linearGradient id="linear-gradient-17" x1="1505.64" x2="1505.64" y2="0" xlink:href="#linear-gradient-2"/><linearGradient id="linear-gradient-18" x1="1478.39" x2="1478.39" y2="0" xlink:href="#linear-gradient-2"/><linearGradient id="linear-gradient-19" x1="1451.13" x2="1451.13" y2="0" xlink:href="#linear-gradient-2"/><linearGradient id="linear-gradient-20" x1="1423.87" x2="1423.87" y2="0" xlink:href="#linear-gradient-2"/><linearGradient id="linear-gradient-21" x1="1396.61" x2="1396.61" y2="0" xlink:href="#linear-gradient-2"/><linearGradient id="linear-gradient-22" x1="1369.36" x2="1369.36" y2="0" xlink:href="#linear-gradient-2"/><linearGradient id="linear-gradient-23" x1="1342.1" x2="1342.1" y2="0" xlink:href="#linear-gradient-2"/><linearGradient id="linear-gradient-24" x1="1314.84" x2="1314.84" y2="0" xlink:href="#linear-gradient-2"/><linearGradient id="linear-gradient-25" x1="1287.59" x2="1287.59" y2="0" xlink:href="#linear-gradient-2"/><linearGradient id="linear-gradient-26" x1="1260.33" x2="1260.33" y2="0" xlink:href="#linear-gradient-2"/><linearGradient id="linear-gradient-27" x1="1233.07" x2="1233.07" y2="0" xlink:href="#linear-gradient-2"/><linearGradient id="linear-gradient-28" x1="1205.81" x2="1205.81" y2="0" xlink:href="#linear-gradient-2"/><linearGradient id="linear-gradient-29" x1="1178.56" x2="1178.56" y2="0" xlink:href="#linear-gradient-2"/><linearGradient id="linear-gradient-30" x1="1151.3" x2="1151.3" y2="0" xlink:href="#linear-gradient-2"/><linearGradient id="linear-gradient-31" x1="1124.04" x2="1124.04" y2="0" xlink:href="#linear-gradient-2"/><linearGradient id="linear-gradient-32" x1="1096.79" x2="1096.79" y2="0" xlink:href="#linear-gradient-2"/><linearGradient id="linear-gradient-33" x1="1069.53" x2="1069.53" y2="0" xlink:href="#linear-gradient-2"/><linearGradient id="linear-gradient-34" x1="1042.27" x2="1042.27" y2="0" xlink:href="#linear-gradient-2"/><linearGradient id="linear-gradient-35" x1="469.87" x2="469.87" y2="0" xlink:href="#linear-gradient-2"/><linearGradient id="linear-gradient-36" x1="442.61" x2="442.61" y2="0" xlink:href="#linear-gradient-2"/><linearGradient id="linear-gradient-37" x1="415.36" x2="415.36" y2="0" xlink:href="#linear-gradient-2"/><linearGradient id="linear-gradient-38" x1="388.1" x2="388.1" y2="0" xlink:href="#linear-gradient-2"/><linearGradient id="linear-gradient-39" x1="360.84" x2="360.84" y2="0" xlink:href="#linear-gradient-2"/><linearGradient id="linear-gradient-40" x1="333.59" x2="333.59" y2="0" xlink:href="#linear-gradient-2"/><linearGradient id="linear-gradient-41" x1="306.33" x2="306.33" y2="0" xlink:href="#linear-gradient-2"/><linearGradient id="linear-gradient-42" x1="279.07" x2="279.07" y2="0" xlink:href="#linear-gradient-2"/><linearGradient id="linear-gradient-43" x1="251.81" x2="251.81" y2="0" xlink:href="#linear-gradient-2"/><linearGradient id="linear-gradient-44" x1="224.56" x2="224.56" y2="0" xlink:href="#linear-gradient-2"/><linearGradient id="linear-gradient-45" x1="197.3" x2="197.3" y2="0" xlink:href="#linear-gradient-2"/><linearGradient id="linear-gradient-46" x1="170.04" x2="170.04" y2="0" xlink:href="#linear-gradient-2"/><linearGradient id="linear-gradient-47" x1="142.79" x2="142.79" y2="0" xlink:href="#linear-gradient-2"/><linearGradient id="linear-gradient-48" x1="115.53" x2="115.53" y2="0" xlink:href="#linear-gradient-2"/><linearGradient id="linear-gradient-49" x1="88.27" x2="88.27" y2="0" xlink:href="#linear-gradient-2"/><linearGradient id="linear-gradient-50" x1="61.01" x2="61.01" y2="0" xlink:href="#linear-gradient-2"/><linearGradient id="linear-gradient-51" x1="33.76" x2="33.76" y2="0" xlink:href="#linear-gradient-2"/><linearGradient id="linear-gradient-52" x1="6.5" x2="6.5" y2="0" xlink:href="#linear-gradient-2"/><linearGradient id="linear-gradient-53" x1="1015.01" x2="1015.01" y2="0" xlink:href="#linear-gradient-2"/><linearGradient id="linear-gradient-54" x1="987.76" x2="987.76" y2="0" xlink:href="#linear-gradient-2"/><linearGradient id="linear-gradient-55" x1="960.5" x2="960.5" y2="0" xlink:href="#linear-gradient-2"/><linearGradient id="linear-gradient-56" x1="933.24" x2="933.24" y2="0" xlink:href="#linear-gradient-2"/><linearGradient id="linear-gradient-57" x1="905.99" x2="905.99" y2="0" xlink:href="#linear-gradient-2"/><linearGradient id="linear-gradient-58" x1="878.73" x2="878.73" y2="0" xlink:href="#linear-gradient-2"/><linearGradient id="linear-gradient-59" x1="851.47" x2="851.47" y2="0" xlink:href="#linear-gradient-2"/><linearGradient id="linear-gradient-60" x1="824.21" x2="824.21" y2="0" xlink:href="#linear-gradient-2"/><linearGradient id="linear-gradient-61" x1="796.96" x2="796.96" y2="0" xlink:href="#linear-gradient-2"/><linearGradient id="linear-gradient-62" x1="769.7" x2="769.7" y2="0" xlink:href="#linear-gradient-2"/><linearGradient id="linear-gradient-63" x1="742.44" x2="742.44" y2="0" xlink:href="#linear-gradient-2"/><linearGradient id="linear-gradient-64" x1="715.19" x2="715.19" y2="0" xlink:href="#linear-gradient-2"/><linearGradient id="linear-gradient-65" x1="687.93" x2="687.93" y2="0" xlink:href="#linear-gradient-2"/><linearGradient id="linear-gradient-66" x1="660.67" x2="660.67" y2="0" xlink:href="#linear-gradient-2"/><linearGradient id="linear-gradient-67" x1="633.41" x2="633.41" y2="0" xlink:href="#linear-gradient-2"/><linearGradient id="linear-gradient-68" x1="606.16" x2="606.16" y2="0" xlink:href="#linear-gradient-2"/><linearGradient id="linear-gradient-69" x1="578.9" x2="578.9" y2="0" xlink:href="#linear-gradient-2"/><linearGradient id="linear-gradient-70" x1="551.64" x2="551.64" y2="0" xlink:href="#linear-gradient-2"/><linearGradient id="linear-gradient-71" x1="524.39" x2="524.39" y2="0" xlink:href="#linear-gradient-2"/><linearGradient id="linear-gradient-72" x1="497.13" x2="497.13" y2="0" xlink:href="#linear-gradient-2"/></defs><title>Asset 1</title><g id="Layer_2" data-name="Layer 2"><g id="Layer_1-2" data-name="Layer 1"><g id="Layer_18" data-name="Layer 18"><g id="Background"><rect class="cls-1" x="0.5" y="0.5" width="1920" height="1080"/><rect class="cls-2" x="1881.24" y="0.5" width="12" height="1080"/><rect class="cls-3" x="1908.5" y="0.5" width="12" height="1080"/><rect class="cls-4" x="1853.99" y="0.5" width="12" height="1080"/><rect class="cls-5" x="1826.73" y="0.5" width="12" height="1080"/><rect class="cls-6" x="1799.47" y="0.5" width="12" height="1080"/><rect class="cls-7" x="1772.21" y="0.5" width="12" height="1080"/><rect class="cls-8" x="1744.96" y="0.5" width="12" height="1080"/><rect class="cls-9" x="1717.7" y="0.5" width="12" height="1080"/><rect class="cls-10" x="1690.44" y="0.5" width="12" height="1080"/><rect class="cls-11" x="1663.19" y="0.5" width="12" height="1080"/><rect class="cls-12" x="1635.93" y="0.5" width="12" height="1080"/><rect class="cls-13" x="1608.67" y="0.5" width="12" height="1080"/><rect class="cls-14" x="1581.41" y="0.5" width="12" height="1080"/><rect class="cls-15" x="1554.16" y="0.5" width="12" height="1080"/><rect class="cls-16" x="1526.9" y="0.5" width="12" height="1080"/><rect class="cls-17" x="1499.64" y="0.5" width="12" height="1080"/><rect class="cls-18" x="1472.39" y="0.5" width="12" height="1080"/><rect class="cls-19" x="1445.13" y="0.5" width="12" height="1080"/><rect class="cls-20" x="1417.87" y="0.5" width="12" height="1080"/><rect class="cls-21" x="1390.61" y="0.5" width="12" height="1080"/><rect class="cls-22" x="1363.36" y="0.5" width="12" height="1080"/><rect class="cls-23" x="1336.1" y="0.5" width="12" height="1080"/><rect class="cls-24" x="1308.84" y="0.5" width="12" height="1080"/><rect class="cls-25" x="1281.59" y="0.5" width="12" height="1080"/><rect class="cls-26" x="1254.33" y="0.5" width="12" height="1080"/><rect class="cls-27" x="1227.07" y="0.5" width="12" height="1080"/><rect class="cls-28" x="1199.81" y="0.5" width="12" height="1080"/><rect class="cls-29" x="1172.56" y="0.5" width="12" height="1080"/><rect class="cls-30" x="1145.3" y="0.5" width="12" height="1080"/><rect class="cls-31" x="1118.04" y="0.5" width="12" height="1080"/><rect class="cls-32" x="1090.79" y="0.5" width="12" height="1080"/><rect class="cls-33" x="1063.53" y="0.5" width="12" height="1080"/><rect class="cls-34" x="1036.27" y="0.5" width="12" height="1080"/><rect class="cls-35" x="463.87" y="0.5" width="12" height="1080"/><rect class="cls-36" x="436.61" y="0.5" width="12" height="1080"/><rect class="cls-37" x="409.36" y="0.5" width="12" height="1080"/><rect class="cls-38" x="382.1" y="0.5" width="12" height="1080"/><rect class="cls-39" x="354.84" y="0.5" width="12" height="1080"/><rect class="cls-40" x="327.59" y="0.5" width="12" height="1080"/><rect class="cls-41" x="300.33" y="0.5" width="12" height="1080"/><rect class="cls-42" x="273.07" y="0.5" width="12" height="1080"/><rect class="cls-43" x="245.81" y="0.5" width="12" height="1080"/><rect class="cls-44" x="218.56" y="0.5" width="12" height="1080"/><rect class="cls-45" x="191.3" y="0.5" width="12" height="1080"/><rect class="cls-46" x="164.04" y="0.5" width="12" height="1080"/><rect class="cls-47" x="136.79" y="0.5" width="12" height="1080"/><rect class="cls-48" x="109.53" y="0.5" width="12" height="1080"/><rect class="cls-49" x="82.27" y="0.5" width="12" height="1080"/><rect class="cls-50" x="55.01" y="0.5" width="12" height="1080"/><rect class="cls-51" x="27.76" y="0.5" width="12" height="1080"/><rect class="cls-52" x="0.5" y="0.5" width="12" height="1080"/><rect class="cls-53" x="1009.01" y="0.5" width="12" height="1080"/><rect class="cls-54" x="981.76" y="0.5" width="12" height="1080"/><rect class="cls-55" x="954.5" y="0.5" width="12" height="1080"/><rect class="cls-56" x="927.24" y="0.5" width="12" height="1080"/><rect class="cls-57" x="899.99" y="0.5" width="12" height="1080"/><rect class="cls-58" x="872.73" y="0.5" width="12" height="1080"/><rect class="cls-59" x="845.47" y="0.5" width="12" height="1080"/><rect class="cls-60" x="818.21" y="0.5" width="12" height="1080"/><rect class="cls-61" x="790.96" y="0.5" width="12" height="1080"/><rect class="cls-62" x="763.7" y="0.5" width="12" height="1080"/><rect class="cls-63" x="736.44" y="0.5" width="12" height="1080"/><rect class="cls-64" x="709.19" y="0.5" width="12" height="1080"/><rect class="cls-65" x="681.93" y="0.5" width="12" height="1080"/><rect class="cls-66" x="654.67" y="0.5" width="12" height="1080"/><rect class="cls-67" x="627.41" y="0.5" width="12" height="1080"/><rect class="cls-68" x="600.16" y="0.5" width="12" height="1080"/><rect class="cls-69" x="572.9" y="0.5" width="12" height="1080"/><rect class="cls-70" x="545.64" y="0.5" width="12" height="1080"/><rect class="cls-71" x="518.39" y="0.5" width="12" height="1080"/><rect class="cls-72" x="491.13" y="0.5" width="12" height="1080"/></g></g></g></g></svg>