<svg xmlns="http://www.w3.org/2000/svg" viewBox="0 0 140.88 72.39"><defs><style>.cls-1{fill:#fff;}</style></defs><title>Asset 5</title><g id="Layer_2" data-name="Layer 2"><g id="Layer_3" data-name="Layer 3"><path class="cls-1" d="M133.88,7V65.39H7V7H133.88m7-7H0V72.39H140.88V0Z"/><path class="cls-1" d="M47.16,49.76H36.5V22.62h4V46.14h6.61Z"/><path class="cls-1" d="M63.25,47.28a2.18,2.18,0,0,1-2.46,2.48H52a2.16,2.16,0,0,1-2.41-2.48V25.12c0-1.66.8-2.5,2.41-2.5h8.81a2.19,2.19,0,0,1,2.46,2.5Zm-4-1V26.11H53.63V46.28Z"/><path class="cls-1" d="M79.94,47.28a2.19,2.19,0,0,1-2.48,2.48H68.92a2.16,2.16,0,0,1-2.41-2.48V25.12A2.2,2.2,0,0,1,69,22.62h8.48a2.2,2.2,0,0,1,2.48,2.5v5.79H75.86v-4.8H70.57V46.28h5.29v-7.6h-3V35.23h7.1Z"/><path class="cls-1" d="M87.31,49.76H83.25V22.62h4.06Z"/><path class="cls-1" d="M104.39,49.76h-3.56l-6.5-17.08a10.55,10.55,0,0,1,.26,2V49.76h-4V22.62h3.55l6.5,16.74a10.55,10.55,0,0,1-.26-2V22.62h4Z"/></g></g></svg>