<svg xmlns="http://www.w3.org/2000/svg" viewBox="0 0 519.56 131.16"><defs><style>.cls-1{fill:#fffdfe;}.cls-2{fill:#fff;}.cls-3{fill:#ff005c;}</style></defs><title>Asset 4</title><g id="Layer_2" data-name="Layer 2"><g id="Layer_5" data-name="Layer 5"><g id="Box_text"><path class="cls-1" d="M39.11,76.45H27.2L14.6,41V34.06H25.83V9.84H11.43V76.45H0V0H30.32q6.88,0,6.89,7V34.84q0,4.84-3.27,6.25c-1.18.49-3.65.74-7.43.74Z"/><path class="cls-1" d="M77.78,76.45H46.09V0h31.4V10.14h-20V32.45H74.71v9.91H57.52v24H77.78Z"/><path class="cls-1" d="M118.57,30.61h-4.76l-5-14.2V13.65h4.49V4H107.5V30.61h-4.57V0h12.13c1.83,0,2.75.94,2.75,2.81V14a2.41,2.41,0,0,1-1.31,2.5,9.22,9.22,0,0,1-3,.3Z"/><path class="cls-1" d="M134,30.61H121.37V0h12.56v4h-8V13h6.87v4h-6.87v9.59H134Z"/><path class="cls-1" d="M152.66,30.61h-4.54l-.91-5.81h-5.73l-.91,5.81h-4.52v-.08L142,0h4.81Zm-6.1-9.73L144.34,7.09l-2.25,13.79Z"/><path class="cls-1" d="M167.23,30.61h-12V0h4.57V26.52h7.45Z"/><path class="cls-1" d="M190.86,30.61H178.18V0h12.56v4h-8V13h6.88v4h-6.88v9.59h8.11Z"/><path class="cls-1" d="M208.63,27.81a2.46,2.46,0,0,1-2.77,2.8h-9.2c-1.84,0-2.75-.94-2.75-2.8V20.53h4.57v6.23h5.58v-6l-9.16-8.67a3.25,3.25,0,0,1-1-2.44V2.85c0-1.87.91-2.81,2.75-2.81h9.2a2.45,2.45,0,0,1,2.77,2.77V9.65h-4.57V3.89h-5.58V9.41l9.16,8.64a3.25,3.25,0,0,1,1,2.48Z"/><path class="cls-2" d="M225.55,4.08h-5V30.61H216V4.08h-5V0h14.63Z"/><path class="cls-3" d="M232.52,30.61H228V0h4.57Z"/><path class="cls-3" d="M254.75,30.61h-4.4V15.53a28.08,28.08,0,0,1,.27-3.32l-3.94,15.6h-2.33l-4-15.6a28.89,28.89,0,0,1,.27,3.32V30.61h-4.39V0h4.32l4.8,16.89a8.83,8.83,0,0,1,.12,1.39,13.28,13.28,0,0,1,.11-1.39L250.43,0h4.32Z"/><path class="cls-1" d="M273.89,30.61h-4.54l-.91-5.81h-5.73l-.91,5.81h-4.52v-.08L263.2,0H268Zm-6.1-9.73L265.57,7.09l-2.25,13.79Z"/><path class="cls-1" d="M289.73,4.08h-5V30.61h-4.55V4.08h-5V0h14.63Z"/><path class="cls-1" d="M304.73,30.61H292.05V0h12.56v4h-8V13h6.88v4h-6.88v9.59h8.11Z"/><path class="cls-2" d="M101.57,69.34q3.27-1.94,5.55-3.43a43.6,43.6,0,0,0,3.77-2.72,15.79,15.79,0,0,0,2.36-2.32,7.86,7.86,0,0,0,1.27-2.19A8.19,8.19,0,0,0,115,56.4c.07-.78.11-1.66.11-2.64V50.11H102.3V46.62h16.86V53.8c0,1.25,0,2.37-.11,3.36a10.87,10.87,0,0,1-.57,2.81A9.86,9.86,0,0,1,117,62.59a17,17,0,0,1-2.68,2.75A52.54,52.54,0,0,1,110,68.56q-2.59,1.75-6.33,4Zm34.64-8.74h-5.82V80.9h-4.06V43.1h4.06v14h5.82Z"/><path class="cls-2" d="M155.89,62.49a5,5,0,0,1-.68,1.29q-.47.68-1.08,1.41c-.82,1-1.74,2-2.75,3.12s-2.06,2.2-3.16,3.32l-2.74-2.75c1.23-1.17,2.37-2.32,3.44-3.44a39,39,0,0,0,2.91-3.4,9,9,0,0,0,1.64-3.16,12.74,12.74,0,0,0,.41-3.32V50.15H147.4V46.74h16.49v3.41h-6.07v5.41a11.16,11.16,0,0,0,.47,3.28A10.08,10.08,0,0,0,160,62c.88,1.12,1.78,2.18,2.71,3.19s2,2.11,3.24,3.28l-2.75,2.71c-1.09-1.09-2.09-2.11-3-3s-1.75-1.91-2.57-2.9a16.22,16.22,0,0,1-1.06-1.41,5.64,5.64,0,0,1-.66-1.29Zm11.85-18.62h4V79.05h-4V59H162V55.48h5.74Zm11.48,37h-4V43.1h4Z"/><path class="cls-2" d="M182.58,53.26a8.24,8.24,0,0,1,.58-2.93,8.45,8.45,0,0,1,1.76-2.81,9.63,9.63,0,0,1,3-2.09,11,11,0,0,1,8.34,0,9.65,9.65,0,0,1,3,2.09,8.62,8.62,0,0,1,2.33,5.74V55.4a8.62,8.62,0,0,1-2.33,5.74,9.65,9.65,0,0,1-3,2.09,11,11,0,0,1-8.34,0,9.63,9.63,0,0,1-3-2.09,8.45,8.45,0,0,1-1.76-2.81,8.24,8.24,0,0,1-.58-2.93Zm15,.17a5.7,5.7,0,0,0-.33-1.89,5.05,5.05,0,0,0-1-1.7,4.93,4.93,0,0,0-1.73-1.23,6.13,6.13,0,0,0-2.52-.47,6.33,6.33,0,0,0-2.54.47,4.82,4.82,0,0,0-2.73,2.93,6.22,6.22,0,0,0-.3,1.89v1.8a5.7,5.7,0,0,0,.33,1.89,4.89,4.89,0,0,0,1,1.7,5,5,0,0,0,1.72,1.23,6.19,6.19,0,0,0,2.52.47,6.13,6.13,0,0,0,2.52-.47,4.9,4.9,0,0,0,2.73-2.93,5.7,5.7,0,0,0,.33-1.89ZM192.38,77h20.05v3.53H188.32V67.94h4.06Zm24.4-19.76H211.4V70.07h-4v-27h4V53.67h5.38Z"/><path class="cls-2" d="M226,48.67V43.34h4.06v5.33h8.77v3.45H217V48.67Zm2,23.78a10.06,10.06,0,0,1-3.85-.68A9,9,0,0,1,221.29,70a7.44,7.44,0,0,1-2.42-5.45V62.16a7.34,7.34,0,0,1,.61-2.91,7.53,7.53,0,0,1,1.81-2.56,8.89,8.89,0,0,1,2.87-1.81,11.34,11.34,0,0,1,7.68,0,8.88,8.88,0,0,1,2.89,1.81,7.53,7.53,0,0,1,1.81,2.56,7.34,7.34,0,0,1,.61,2.91v2.38A7.44,7.44,0,0,1,234.73,70a9,9,0,0,1-2.89,1.78A10.09,10.09,0,0,1,228,72.45Zm0-14.84a5.44,5.44,0,0,0-3.9,1.37,4.83,4.83,0,0,0-1.43,3.63v1.48a4.77,4.77,0,0,0,1.43,3.61,6.29,6.29,0,0,0,7.79,0,4.74,4.74,0,0,0,1.44-3.61V62.61A4.8,4.8,0,0,0,231.9,59,5.4,5.4,0,0,0,228,57.61Zm24.23,4h-5.82V80.9h-4.06V43.1h4.06v15h5.82Z"/><path class="cls-2" d="M286.76,62.2v3.45H252.08V62.2ZM261.14,77H282.5v3.53H257.08V69.09h4.06Zm.2-32.39v9.84H281.8v3.45H257.32V44.57Z"/><path class="cls-2" d="M320.38,61.55c-1.45.19-2.8.34-4.06.45s-2.65.19-4.18.26-3.31.12-5.33.15-4.51,0-7.46,0v-17h17.51V49H303.33V59c2.1,0,3.88,0,5.35,0s2.79-.07,4-.12,2.37-.13,3.49-.23,2.39-.22,3.81-.39ZM304.8,73.11a5.35,5.35,0,0,1,.78-2.79,7.16,7.16,0,0,1,2.26-2.3,12.28,12.28,0,0,1,3.58-1.55,20,20,0,0,1,9.56,0A12.28,12.28,0,0,1,324.56,68a7.16,7.16,0,0,1,2.26,2.3,5.35,5.35,0,0,1,.78,2.79v1.64a5.4,5.4,0,0,1-.78,2.79,7.14,7.14,0,0,1-2.26,2.29A12,12,0,0,1,321,81.39a20.33,20.33,0,0,1-9.56,0,12,12,0,0,1-3.58-1.56,7.14,7.14,0,0,1-2.26-2.29,5.4,5.4,0,0,1-.78-2.79Zm18.82.24a2.65,2.65,0,0,0-.51-1.49,4.62,4.62,0,0,0-1.48-1.34,9.5,9.5,0,0,0-2.33-.94,13.17,13.17,0,0,0-6.2,0,9.5,9.5,0,0,0-2.33.94,4.62,4.62,0,0,0-1.48,1.34,2.65,2.65,0,0,0-.51,1.49V74.5a2.7,2.7,0,0,0,.51,1.5,4.6,4.6,0,0,0,1.48,1.33,9.13,9.13,0,0,0,2.33.94,13.17,13.17,0,0,0,6.2,0,9.13,9.13,0,0,0,2.33-.94A4.6,4.6,0,0,0,323.11,76a2.7,2.7,0,0,0,.51-1.5Zm9.19-18h-5.38V65.4h-4V43.1h4v8.73h5.38Z"/><path class="cls-2" d="M344.65,57.12a4.66,4.66,0,0,1-1,1.47,23.06,23.06,0,0,1-1.76,1.81c-.85.79-1.85,1.66-3,2.62s-2.26,1.87-3.36,2.75l-2.42-2.87c.66-.49,1.31-1,1.95-1.52s1.26-1,1.85-1.52,1.12-1,1.62-1.41.91-.85,1.27-1.21a11.8,11.8,0,0,0,1.29-1.5,7.39,7.39,0,0,0,.82-1.47,7.15,7.15,0,0,0,.43-1.62,14.16,14.16,0,0,0,.12-1.93V44.86h4.1v5.7c0,.63,0,1.19.06,1.7a6.08,6.08,0,0,0,.27,1.41,5.36,5.36,0,0,0,.63,1.3,7.5,7.5,0,0,0,1.17,1.29c1,.87,2,1.78,3.18,2.72s2.36,1.86,3.59,2.73l-2.38,2.83c-1-.79-2.06-1.61-3.08-2.44l-3-2.48a16.2,16.2,0,0,1-1.54-1.42,4.59,4.59,0,0,1-.8-1.08ZM344.49,77H365v3.53H340.43V67.78h4.06ZM360,70V43.1h4V70Z"/><path class="cls-2" d="M393.9,72c-1.73.17-3.49.31-5.29.43s-3.71.23-5.72.31-4.16.14-6.44.18S371.69,73,369,73V69.5q4,0,7.44,0c2.25,0,4.37-.08,6.33-.15s3.83-.15,5.58-.26,3.47-.25,5.17-.41Zm-13-8.2a11.86,11.86,0,0,1-4.18-.69,10.41,10.41,0,0,1-3.16-1.85,8,8,0,0,1-2-2.62,7.07,7.07,0,0,1-.7-3.08V53.72a7,7,0,0,1,.7-3.08,7.87,7.87,0,0,1,2-2.62,10.21,10.21,0,0,1,3.16-1.85,12.83,12.83,0,0,1,8.36,0A10.33,10.33,0,0,1,388.24,48a8.14,8.14,0,0,1,2,2.62,7.18,7.18,0,0,1,.69,3.08V55.6a7.21,7.21,0,0,1-.69,3.08,8.25,8.25,0,0,1-2,2.62,10.53,10.53,0,0,1-3.16,1.85A11.86,11.86,0,0,1,380.9,63.84Zm0-3.52a7.12,7.12,0,0,0,2.4-.41,7,7,0,0,0,2-1.09,5.09,5.09,0,0,0,1.32-1.58,4.07,4.07,0,0,0,.47-1.89V54a4.31,4.31,0,0,0-.47-2,4.87,4.87,0,0,0-1.32-1.58,6.9,6.9,0,0,0-2-1,7.36,7.36,0,0,0-2.4-.39,7.23,7.23,0,0,0-2.42.39,7,7,0,0,0-2,1A4.72,4.72,0,0,0,375.22,52a4.19,4.19,0,0,0-.47,2v1.39a4,4,0,0,0,.47,1.89,4.93,4.93,0,0,0,1.31,1.58,7.08,7.08,0,0,0,2,1.09A7,7,0,0,0,380.9,60.32Zm15,20.58V43.1h4V80.9Z"/><path class="cls-2" d="M424.93,62.2a6.15,6.15,0,0,1-.86,1.44q-.57.73-1.56,1.8c-.84.93-1.79,1.92-2.83,3s-2.25,2.22-3.65,3.51l-2.66-2.75q1.85-1.68,3.38-3.2c1-1,2-2,2.93-3.07a17.37,17.37,0,0,0,1.64-2,8.73,8.73,0,0,0,.95-1.76,8.36,8.36,0,0,0,.45-1.77,15.61,15.61,0,0,0,.12-2V50.07h-8.12V46.54h20.13v3.53h-7.91v5.24a16.53,16.53,0,0,0,.12,2.14,7.18,7.18,0,0,0,.47,1.72,8.9,8.9,0,0,0,1,1.7,24.65,24.65,0,0,0,1.76,2.07c.88,1,1.77,1.87,2.69,2.75s2,1.84,3.22,2.91l-2.67,2.74q-2.09-1.92-3.48-3.3c-.93-.91-1.79-1.79-2.59-2.64-.57-.63-1.09-1.22-1.55-1.76A5.67,5.67,0,0,1,425,62.2ZM449,60.6h-5.82V80.9h-4.06V43.1h4.06v14H449Z"/><path class="cls-2" d="M467.08,62.86q-1.44.24-2.73.39c-.86.09-1.88.17-3.07.22s-2.65.1-4.37.13-3.91,0-6.56,0V45.15h14.43v3.32H454.16v4.26h10.38V56H454.16v4.35c1.53,0,2.87,0,4,0s2.17-.06,3.1-.12,1.81-.13,2.66-.22l2.71-.35Zm-10.87,4.92H481V81.27H477v-10H456.21ZM477.12,43.1H481V65.85h-3.9V55.44h-4V65.77h-3.86V43.59h3.86V52h4Z"/><path class="cls-2" d="M493.36,45.92a7.42,7.42,0,0,1,6.21,2.71q2.12,2.7,2.11,8.16v.12h3.9v-13h4V79.05h-4V60.44h-3.9v.37q0,5.44-2.11,8.16a8.49,8.49,0,0,1-12.42,0Q485,66.26,485,60.81v-4q0-5.46,2.11-8.16A7.42,7.42,0,0,1,493.36,45.92Zm0,22.19a3.67,3.67,0,0,0,3.38-1.79c.73-1.19,1.09-3.17,1.09-6V57.24q0-4.14-1.11-5.92a4.07,4.07,0,0,0-6.74,0q-1.1,1.78-1.09,5.92v3.12c0,2.79.36,4.77,1.09,6A3.67,3.67,0,0,0,493.36,68.11Zm23.7,12.79h-4V43.1h4Z"/><path class="cls-2" d="M116.9,99.43H106.45v17h2.09c.93,0,1.8,0,2.62,0s1.63-.06,2.42-.12,1.61-.13,2.46-.22,1.75-.23,2.71-.39l.41,3.4c-1.07.16-2.07.31-3,.43s-1.84.22-2.74.29-1.82.11-2.73.14-1.91,0-3,0h-5.37V95.9H116.9Zm16.85,30.67h-4V109h-4.46v19.27h-4V93.07h4v12.39h4.46V92.3h4Z"/><path class="cls-2" d="M158.19,99.92H136.5V96.48h8.85V91.93h4v4.55h8.82Zm-10.83,16.61a11.2,11.2,0,0,1-3.85-.6,8.27,8.27,0,0,1-2.75-1.58,6.45,6.45,0,0,1-1.66-2.23,6.24,6.24,0,0,1-.55-2.56v-1.23a6.4,6.4,0,0,1,.55-2.61,6.29,6.29,0,0,1,1.66-2.21,8.79,8.79,0,0,1,2.75-1.56,12.89,12.89,0,0,1,7.71,0,8.29,8.29,0,0,1,2.74,1.58,6.41,6.41,0,0,1,1.66,2.23,6.3,6.3,0,0,1,.56,2.57v1.23a6.26,6.26,0,0,1-.56,2.56,6.32,6.32,0,0,1-1.66,2.23,8.12,8.12,0,0,1-2.74,1.58A11.26,11.26,0,0,1,147.36,116.53Zm0-3.24a6.62,6.62,0,0,0,2.18-.33,4.56,4.56,0,0,0,1.55-.88,3.69,3.69,0,0,0,.93-1.27,3.78,3.78,0,0,0,.3-1.46v-.82a3.73,3.73,0,0,0-.3-1.45,3.6,3.6,0,0,0-.93-1.27,4.57,4.57,0,0,0-1.53-.89,7.69,7.69,0,0,0-4.39,0,4.62,4.62,0,0,0-1.54.89,3.45,3.45,0,0,0-.92,1.27,3.57,3.57,0,0,0-.31,1.45v.82a3.62,3.62,0,0,0,.31,1.46,3.54,3.54,0,0,0,.92,1.27,4.51,4.51,0,0,0,1.56.88A6.55,6.55,0,0,0,147.36,113.29Zm-.49,12.87h20v3.53H142.81V119.23h4.06Zm24.4-19.1H165.9v12.67h-4V92.3h4v11.23h5.37Z"/><path class="cls-2" d="M193.73,106.07a5.6,5.6,0,0,1-1,1.46,15.25,15.25,0,0,1-1.76,1.74c-.88.77-1.85,1.57-2.93,2.42s-2.2,1.67-3.35,2.46l-2.37-2.91q2-1.39,3.69-2.73a35.28,35.28,0,0,0,2.82-2.4,14.55,14.55,0,0,0,1.28-1.43,6.72,6.72,0,0,0,.84-1.46,8,8,0,0,0,.45-1.64,13.21,13.21,0,0,0,.14-2V98h-7.95V94.51h19.51V98h-7.46v1.44c0,.66,0,1.24.08,1.76a6.91,6.91,0,0,0,.31,1.44,4.93,4.93,0,0,0,.64,1.25,7,7,0,0,0,1.1,1.21c1,.87,2,1.71,3,2.52s2.21,1.61,3.44,2.4L202,113c-1.07-.74-2.07-1.46-3-2.17s-1.88-1.48-2.87-2.3c-.63-.52-1.14-1-1.54-1.37a4.16,4.16,0,0,1-.8-1.05Zm-5.49,10.21h24.89v14.19h-4.06v-10.7H188.24Zm20.87-2v-9.47h-7v-3.48h7V92.3h4v22Z"/><path class="cls-2" d="M229,106.28a5.59,5.59,0,0,1-1,1.45,14.56,14.56,0,0,1-1.76,1.75c-.88.76-1.85,1.57-2.94,2.41s-2.19,1.67-3.34,2.46l-2.37-2.91q2-1.39,3.69-2.72a35.28,35.28,0,0,0,2.82-2.4,13.54,13.54,0,0,0,1.28-1.44,6.65,6.65,0,0,0,.84-1.45,8.22,8.22,0,0,0,.45-1.64,13.21,13.21,0,0,0,.14-2V98.12h-7.95V94.63h19.51v3.49h-7.46v1.52c0,.65,0,1.24.08,1.76a6.68,6.68,0,0,0,.31,1.43,4.77,4.77,0,0,0,.64,1.25,6.66,6.66,0,0,0,1.1,1.21,39.46,39.46,0,0,0,3,2.52c1.06.81,2.21,1.61,3.44,2.4l-2.3,3c-1.06-.73-2.06-1.46-3-2.17s-1.88-1.47-2.87-2.29c-.63-.52-1.14-1-1.54-1.38a4,4,0,0,1-.8-1Zm-3.64,16.07a5.29,5.29,0,0,1,.79-2.79,7.39,7.39,0,0,1,2.3-2.29,12,12,0,0,1,3.65-1.54,21.37,21.37,0,0,1,9.72,0,12.09,12.09,0,0,1,3.65,1.54,7.35,7.35,0,0,1,2.29,2.29,5.3,5.3,0,0,1,.8,2.79V124a5.33,5.33,0,0,1-.8,2.79,7.35,7.35,0,0,1-2.29,2.29,12.09,12.09,0,0,1-3.65,1.54,21.75,21.75,0,0,1-9.72,0,12,12,0,0,1-3.65-1.54,7.39,7.39,0,0,1-2.3-2.29,5.32,5.32,0,0,1-.79-2.79Zm19.22.25a2.46,2.46,0,0,0-.53-1.48,4.9,4.9,0,0,0-1.52-1.33,8.64,8.64,0,0,0-2.39-1,14.62,14.62,0,0,0-6.36,0,8.84,8.84,0,0,0-2.4,1,5.14,5.14,0,0,0-1.52,1.33,2.53,2.53,0,0,0-.53,1.48v1.14a2.55,2.55,0,0,0,.53,1.48,5.29,5.29,0,0,0,1.52,1.33,8.52,8.52,0,0,0,2.4.94,14.62,14.62,0,0,0,6.36,0,8.34,8.34,0,0,0,2.39-.94,5,5,0,0,0,1.52-1.33,2.49,2.49,0,0,0,.53-1.48Zm-.2-8v-9.59h-7v-3.49h7V92.3h4v22.34Z"/><path class="cls-2" d="M279.14,120H263.88V95.9h15.26Zm-11.28-3.44h7.3V99.35h-7.3Zm27.39,13.57h-4V109.27H287v19h-4V93.07h4v12.67h4.3V92.3h4Z"/><path class="cls-2" d="M314.4,120H299.14V95.9H314.4Zm-11.28-3.44h7.3V99.35h-7.3Zm27.39,13.57h-4V109.27h-4.3v19h-4V93.07h4v12.67h4.3V92.3h4Z"/><path class="cls-2" d="M343.88,118.54q3.27-1.94,5.55-3.43a45.21,45.21,0,0,0,3.77-2.72,15.79,15.79,0,0,0,2.36-2.32,8.11,8.11,0,0,0,1.27-2.19,9,9,0,0,0,.51-2.28c.07-.78.11-1.66.11-2.64V99.31H344.61V95.82h16.85V103c0,1.25,0,2.37-.1,3.36a10.87,10.87,0,0,1-.57,2.81,10.15,10.15,0,0,1-1.44,2.62,17.4,17.4,0,0,1-2.68,2.75,52.54,52.54,0,0,1-4.33,3.22c-1.73,1.17-3.85,2.51-6.33,4Zm34.64-8.74H372.7v20.3h-4.06V92.3h4.06v14h5.82Z"/><path class="cls-2" d="M393.2,98H381.14V94.51h16v5.94a11,11,0,0,1-.7,4.11,8.72,8.72,0,0,1-2.48,3.25,24.12,24.12,0,0,1-4.9,3.1q-3.12,1.56-8,3.61l-1.55-3.24q4.34-1.8,7-3.18a23.31,23.31,0,0,0,4.14-2.6,6.53,6.53,0,0,0,2-2.48,8,8,0,0,0,.49-2.85ZM385,116.4h24.89v14.07h-4.06V119.89H385Zm20.91-2v-5.33h-7.3v-3.49H406v-4.3h-6.68V97.83H406V92.3h4v22.14Z"/><path class="cls-2" d="M424.65,93.61a11,11,0,0,1,4.09.7,8.79,8.79,0,0,1,2.94,1.82,7.65,7.65,0,0,1,1.76,2.54,7.21,7.21,0,0,1,.59,2.85v1.56a7.21,7.21,0,0,1-.59,2.85,7.65,7.65,0,0,1-1.76,2.54,8.79,8.79,0,0,1-2.94,1.82,12.36,12.36,0,0,1-8.2,0,8.84,8.84,0,0,1-2.93-1.82,7.65,7.65,0,0,1-1.76-2.54,7.21,7.21,0,0,1-.59-2.85v-1.56a7.21,7.21,0,0,1,.59-2.85,7.65,7.65,0,0,1,1.76-2.54,8.84,8.84,0,0,1,2.93-1.82A11.06,11.06,0,0,1,424.65,93.61Zm0,13.9a6.29,6.29,0,0,0,2.33-.41A5.47,5.47,0,0,0,428.7,106a4.7,4.7,0,0,0,1.07-1.47,4,4,0,0,0,.37-1.69v-1.14a4,4,0,0,0-.37-1.69,4.41,4.41,0,0,0-1.07-1.45,5.82,5.82,0,0,0-1.72-1,6.85,6.85,0,0,0-4.67,0,5.69,5.69,0,0,0-1.72,1,4.41,4.41,0,0,0-1.07,1.45,4,4,0,0,0-.37,1.69v1.14a4,4,0,0,0,.37,1.69,4.7,4.7,0,0,0,1.07,1.47,5.35,5.35,0,0,0,1.72,1.07A6.3,6.3,0,0,0,424.65,107.51Zm20.29,6.11V130.1H421.36V113.62h4v4.71h15.54v-4.71Zm-4,13v-4.92H425.38v4.92Zm0-14.88V92.3h4v19.47Z"/><path class="cls-2" d="M456,95.41v21h3.65q3.4,0,6.58-.22a58.86,58.86,0,0,0,6.33-.8l.45,3.52c-1.2.22-2.33.4-3.4.54s-2.17.24-3.3.33-2.33.13-3.59.16-2.66,0-4.22,0h-6.6V95.41Zm20.34,34.69V92.3h4v37.8Z"/><path class="cls-2" d="M503.4,99.23H490.08v17.38h2.17q4,0,7.53-.27c2.33-.18,4.66-.44,7-.8l.53,3.41a72.09,72.09,0,0,1-7.48.92q-3.84.27-8.43.27H486V95.7H503.4Zm16.16,10.25h-5.82V130.1h-4.06V92.3h4.06V106h5.82Z"/></g></g></g></svg>