<svg xmlns="http://www.w3.org/2000/svg" xmlns:xlink="http://www.w3.org/1999/xlink" viewBox="0 0 1420.13 1041.41"><defs><style>.cls-1{fill:url(#linear-gradient);}.cls-2{fill:url(#linear-gradient-2);}.cls-3{fill:url(#linear-gradient-3);}.cls-4{fill:url(#linear-gradient-4);}.cls-5{fill:url(#linear-gradient-5);}.cls-6{fill:url(#linear-gradient-6);}.cls-7{fill:url(#linear-gradient-7);}.cls-8{fill:url(#linear-gradient-8);}.cls-9{fill:url(#linear-gradient-9);}.cls-10{fill:url(#linear-gradient-10);}.cls-11{fill:url(#linear-gradient-11);}.cls-12{fill:url(#linear-gradient-12);}.cls-13{fill:url(#linear-gradient-13);}.cls-14{fill:url(#linear-gradient-14);}.cls-15{fill:url(#linear-gradient-15);}.cls-16{fill:url(#linear-gradient-16);}.cls-17{fill:url(#linear-gradient-17);}.cls-18{fill:url(#linear-gradient-18);}.cls-19{fill:url(#linear-gradient-19);}.cls-20{fill:url(#linear-gradient-20);}.cls-21{fill:url(#linear-gradient-21);}.cls-22{fill:url(#linear-gradient-22);}.cls-23{fill:url(#linear-gradient-23);}.cls-24{fill:url(#linear-gradient-24);}.cls-25{fill:url(#linear-gradient-25);}.cls-26{fill:url(#linear-gradient-26);}.cls-27{fill:url(#linear-gradient-27);}.cls-28{fill:url(#linear-gradient-28);}.cls-29{fill:url(#linear-gradient-29);}.cls-30{fill:url(#linear-gradient-30);}.cls-31{fill:url(#linear-gradient-31);}.cls-32{fill:url(#linear-gradient-32);}.cls-33{fill:url(#linear-gradient-33);}.cls-34{fill:url(#linear-gradient-34);}.cls-35{fill:url(#linear-gradient-35);}.cls-36{fill:url(#linear-gradient-36);}.cls-37{fill:url(#linear-gradient-37);}.cls-38{fill:url(#linear-gradient-38);}.cls-39{fill:url(#linear-gradient-39);}.cls-40{fill:url(#linear-gradient-40);}</style><linearGradient id="linear-gradient" x1="94.86" y1="289.22" x2="284.58" y2="289.22" gradientUnits="userSpaceOnUse"><stop offset="0" stop-color="#e82c2a"/><stop offset="1" stop-color="#9e005d"/></linearGradient><linearGradient id="linear-gradient-2" x1="0" y1="57.84" x2="189.72" y2="57.84" xlink:href="#linear-gradient"/><linearGradient id="linear-gradient-3" x1="0" y1="173.54" x2="189.72" y2="173.54" xlink:href="#linear-gradient"/><linearGradient id="linear-gradient-4" x1="94.86" y1="173.54" x2="284.58" y2="173.54" xlink:href="#linear-gradient"/><linearGradient id="linear-gradient-5" x1="284.58" y1="520.6" x2="474.3" y2="520.6" xlink:href="#linear-gradient"/><linearGradient id="linear-gradient-6" x1="189.72" y1="289.22" x2="379.44" y2="289.22" xlink:href="#linear-gradient"/><linearGradient id="linear-gradient-7" x1="189.72" y1="404.92" x2="379.44" y2="404.92" xlink:href="#linear-gradient"/><linearGradient id="linear-gradient-8" x1="284.58" y1="404.92" x2="474.3" y2="404.92" xlink:href="#linear-gradient"/><linearGradient id="linear-gradient-9" x1="284.58" y1="289.22" x2="474.3" y2="289.22" xlink:href="#linear-gradient"/><linearGradient id="linear-gradient-10" x1="189.72" y1="57.84" x2="379.44" y2="57.84" xlink:href="#linear-gradient"/><linearGradient id="linear-gradient-11" x1="189.72" y1="173.54" x2="379.44" y2="173.54" xlink:href="#linear-gradient"/><linearGradient id="linear-gradient-12" x1="284.58" y1="173.54" x2="474.3" y2="173.54" xlink:href="#linear-gradient"/><linearGradient id="linear-gradient-13" x1="474.3" y1="289.22" x2="664.02" y2="289.22" xlink:href="#linear-gradient"/><linearGradient id="linear-gradient-14" x1="379.44" y1="57.84" x2="569.16" y2="57.84" xlink:href="#linear-gradient"/><linearGradient id="linear-gradient-15" x1="379.44" y1="173.54" x2="569.16" y2="173.54" xlink:href="#linear-gradient"/><linearGradient id="linear-gradient-16" x1="474.3" y1="173.54" x2="664.02" y2="173.54" xlink:href="#linear-gradient"/><linearGradient id="linear-gradient-17" x1="664.02" y1="520.6" x2="853.74" y2="520.6" xlink:href="#linear-gradient"/><linearGradient id="linear-gradient-18" x1="569.16" y1="289.22" x2="758.88" y2="289.22" xlink:href="#linear-gradient"/><linearGradient id="linear-gradient-19" x1="569.16" y1="404.92" x2="758.88" y2="404.92" xlink:href="#linear-gradient"/><linearGradient id="linear-gradient-20" x1="664.02" y1="404.92" x2="853.74" y2="404.92" xlink:href="#linear-gradient"/><linearGradient id="linear-gradient-21" x1="664.02" y1="867.65" x2="853.74" y2="867.65" xlink:href="#linear-gradient"/><linearGradient id="linear-gradient-22" x1="569.16" y1="636.27" x2="758.88" y2="636.27" xlink:href="#linear-gradient"/><linearGradient id="linear-gradient-23" x1="569.16" y1="751.97" x2="758.88" y2="751.97" xlink:href="#linear-gradient"/><linearGradient id="linear-gradient-24" x1="664.02" y1="751.97" x2="853.74" y2="751.97" xlink:href="#linear-gradient"/><linearGradient id="linear-gradient-25" x1="380.26" y1="867.9" x2="569.98" y2="867.9" xlink:href="#linear-gradient"/><linearGradient id="linear-gradient-26" x1="758.88" y1="520.6" x2="948.6" y2="520.6" xlink:href="#linear-gradient"/><linearGradient id="linear-gradient-27" x1="1230.41" y1="289.22" x2="1420.13" y2="289.22" xlink:href="#linear-gradient"/><linearGradient id="linear-gradient-28" x1="1135.55" y1="173.54" x2="1325.27" y2="173.54" xlink:href="#linear-gradient"/><linearGradient id="linear-gradient-29" x1="380.26" y1="983.58" x2="569.98" y2="983.58" xlink:href="#linear-gradient"/><linearGradient id="linear-gradient-30" x1="94.86" y1="636.27" x2="284.58" y2="636.27" xlink:href="#linear-gradient"/><linearGradient id="linear-gradient-31" x1="94.86" y1="751.97" x2="284.58" y2="751.97" xlink:href="#linear-gradient"/><linearGradient id="linear-gradient-32" x1="189.72" y1="751.97" x2="379.44" y2="751.97" xlink:href="#linear-gradient"/><linearGradient id="linear-gradient-33" x1="850.97" y1="289.22" x2="1040.69" y2="289.22" xlink:href="#linear-gradient"/><linearGradient id="linear-gradient-34" x1="756.11" y1="57.84" x2="945.83" y2="57.84" xlink:href="#linear-gradient"/><linearGradient id="linear-gradient-35" x1="756.11" y1="173.54" x2="945.83" y2="173.54" xlink:href="#linear-gradient"/><linearGradient id="linear-gradient-36" x1="850.97" y1="173.54" x2="1040.69" y2="173.54" xlink:href="#linear-gradient"/><linearGradient id="linear-gradient-37" x1="1040.69" y1="520.6" x2="1230.41" y2="520.6" xlink:href="#linear-gradient"/><linearGradient id="linear-gradient-38" x1="945.83" y1="289.22" x2="1135.55" y2="289.22" xlink:href="#linear-gradient"/><linearGradient id="linear-gradient-39" x1="945.83" y1="404.92" x2="1135.55" y2="404.92" xlink:href="#linear-gradient"/><linearGradient id="linear-gradient-40" x1="1040.69" y1="404.92" x2="1230.41" y2="404.92" xlink:href="#linear-gradient"/></defs><title>Asset_4</title><g id="Layer_2" data-name="Layer 2"><g id="Layer_1-2" data-name="Layer 1"><g id="Layer_17" data-name="Layer 17"><polygon class="cls-1" points="189.72 347.05 94.86 347.05 189.72 231.38 284.58 231.38 189.72 347.05"/><polygon class="cls-2" points="94.86 115.67 0 115.67 94.86 0 189.72 0 94.86 115.67"/><polygon class="cls-3" points="94.86 231.38 0 231.38 94.86 115.71 189.72 115.71 94.86 231.38"/><polygon class="cls-4" points="189.72 231.38 94.86 231.38 189.72 115.71 284.58 115.71 189.72 231.38"/><polygon class="cls-5" points="379.44 578.43 284.58 578.43 379.44 462.76 474.3 462.76 379.44 578.43"/><polygon class="cls-6" points="284.58 347.05 189.72 347.05 284.58 231.38 379.44 231.38 284.58 347.05"/><polygon class="cls-7" points="284.58 462.76 189.72 462.76 284.58 347.08 379.44 347.08 284.58 462.76"/><polygon class="cls-8" points="379.44 462.76 284.58 462.76 379.44 347.08 474.3 347.08 379.44 462.76"/><polygon class="cls-9" points="379.44 347.05 284.58 347.05 379.44 231.38 474.3 231.38 379.44 347.05"/><polygon class="cls-10" points="284.58 115.67 189.72 115.67 284.58 0 379.44 0 284.58 115.67"/><polygon class="cls-11" points="284.58 231.38 189.72 231.38 284.58 115.71 379.44 115.71 284.58 231.38"/><polygon class="cls-12" points="379.44 231.38 284.58 231.38 379.44 115.71 474.3 115.71 379.44 231.38"/><polygon class="cls-13" points="569.16 347.05 474.3 347.05 569.16 231.38 664.02 231.38 569.16 347.05"/><polygon class="cls-14" points="474.3 115.67 379.44 115.67 474.3 0 569.16 0 474.3 115.67"/><polygon class="cls-15" points="474.3 231.38 379.44 231.38 474.3 115.71 569.16 115.71 474.3 231.38"/><polygon class="cls-16" points="569.16 231.38 474.3 231.38 569.16 115.71 664.02 115.71 569.16 231.38"/><polygon class="cls-17" points="758.88 578.43 664.02 578.43 758.88 462.76 853.74 462.76 758.88 578.43"/><polygon class="cls-18" points="664.02 347.05 569.16 347.05 664.02 231.38 758.88 231.38 664.02 347.05"/><polygon class="cls-19" points="664.02 462.76 569.16 462.76 664.02 347.08 758.88 347.08 664.02 462.76"/><polygon class="cls-20" points="758.88 462.76 664.02 462.76 758.88 347.08 853.74 347.08 758.88 462.76"/><polygon class="cls-21" points="758.88 925.49 664.02 925.49 758.88 809.81 853.74 809.81 758.88 925.49"/><polygon class="cls-22" points="664.02 694.11 569.16 694.11 664.02 578.43 758.88 578.43 664.02 694.11"/><polygon class="cls-23" points="664.02 809.81 569.16 809.81 664.02 694.14 758.88 694.14 664.02 809.81"/><polygon class="cls-24" points="758.88 809.81 664.02 809.81 758.88 694.14 853.74 694.14 758.88 809.81"/><polygon class="cls-25" points="475.12 925.74 380.26 925.74 475.12 810.07 569.98 810.07 475.12 925.74"/><polygon class="cls-26" points="853.74 578.43 758.88 578.43 853.74 462.76 948.6 462.76 853.74 578.43"/><polygon class="cls-27" points="1325.27 347.05 1230.41 347.05 1325.27 231.38 1420.13 231.38 1325.27 347.05"/><polygon class="cls-28" points="1230.41 231.38 1135.55 231.38 1230.41 115.71 1325.27 115.71 1230.41 231.38"/><polygon class="cls-29" points="475.12 1041.41 380.26 1041.41 475.12 925.74 569.98 925.74 475.12 1041.41"/><polygon class="cls-30" points="189.72 694.11 94.86 694.11 189.72 578.43 284.58 578.43 189.72 694.11"/><polygon class="cls-31" points="189.72 809.81 94.86 809.81 189.72 694.14 284.58 694.14 189.72 809.81"/><polygon class="cls-32" points="284.58 809.81 189.72 809.81 284.58 694.14 379.44 694.14 284.58 809.81"/><polygon class="cls-33" points="945.83 347.05 850.97 347.05 945.83 231.38 1040.69 231.38 945.83 347.05"/><polygon class="cls-34" points="850.97 115.67 756.11 115.67 850.97 0 945.83 0 850.97 115.67"/><polygon class="cls-35" points="850.97 231.38 756.11 231.38 850.97 115.71 945.83 115.71 850.97 231.38"/><polygon class="cls-36" points="945.83 231.38 850.97 231.38 945.83 115.71 1040.69 115.71 945.83 231.38"/><polygon class="cls-37" points="1135.55 578.43 1040.69 578.43 1135.55 462.76 1230.41 462.76 1135.55 578.43"/><polygon class="cls-38" points="1040.69 347.05 945.83 347.05 1040.69 231.38 1135.55 231.38 1040.69 347.05"/><polygon class="cls-39" points="1040.69 462.76 945.83 462.76 1040.69 347.08 1135.55 347.08 1040.69 462.76"/><polygon class="cls-40" points="1135.55 462.76 1040.69 462.76 1135.55 347.08 1230.41 347.08 1135.55 462.76"/></g></g></g></svg>