<svg xmlns="http://www.w3.org/2000/svg" viewBox="0 0 141.24 72.57"><defs><style>.cls-1{fill:#fff;}</style></defs><title>Asset_6</title><g id="Layer_2" data-name="Layer 2"><g id="Layer_1-2" data-name="Layer 1"><g id="Login"><path class="cls-1" d="M134.24,7V65.57H7V7H134.24m7-7H0V72.57H141.24V0Z"/></g><path class="cls-1" d="M34.67,50H23.86V22.53H28V46.37h6.7Z"/><path class="cls-1" d="M51,47.53A2.21,2.21,0,0,1,48.49,50H39.56a2.19,2.19,0,0,1-2.44-2.51V25.06q0-2.53,2.44-2.53h8.93A2.22,2.22,0,0,1,51,25.06Zm-4.11-1V26.06H41.23V46.51Z"/><path class="cls-1" d="M67.89,47.53A2.22,2.22,0,0,1,65.38,50H56.73a2.19,2.19,0,0,1-2.44-2.51V25.06a2.22,2.22,0,0,1,2.5-2.53h8.6a2.23,2.23,0,0,1,2.51,2.53v5.87H63.76V26.06H58.4V46.51h5.36v-7.7H60.7v-3.5h7.19Z"/><path class="cls-1" d="M85,47.53A2.21,2.21,0,0,1,82.55,50H73.62a2.19,2.19,0,0,1-2.44-2.51V25.06q0-2.53,2.44-2.53h8.93A2.22,2.22,0,0,1,85,25.06Zm-4.11-1V26.06H75.29V46.51Z"/><path class="cls-1" d="M102.12,47.53A2.23,2.23,0,0,1,99.59,50H90.85a2.21,2.21,0,0,1-2.5-2.51v-25h4.11v24H98v-24h4.11Z"/><path class="cls-1" d="M117.38,26.17h-4.54V50h-4.1V26.17h-4.54V22.53h13.17Z"/></g></g></svg>